/* XPM */
static char *png_clipart_pixel_art_drawing_graphics_2d_coin_sprite_text_photography__1__removebg_preview_removebg_preview__1_1675008128[] = {
/* columns rows colors chars-per-pixel */
"65 65 247 2 ",
"   c #290A00",
".  c #3C0900",
"X  c #3B1303",
"o  c #450200",
"O  c #4A0400",
"+  c #570600",
"@  c #481615",
"#  c #451300",
"$  c #7E1813",
"%  c #71120E",
"&  c #462900",
"*  c #493200",
"=  c #5A3917",
"-  c #563503",
";  c #653200",
":  c #673215",
">  c #6A1F24",
",  c #5E4F0B",
"<  c #644D07",
"1  c #655605",
"2  c #63411D",
"3  c #784D1A",
"4  c #785C1A",
"5  c #6F5508",
"6  c #7D5831",
"7  c #724025",
"8  c #74602E",
"9  c #766517",
"0  c #890E07",
"q  c #960B01",
"w  c #9B0D05",
"e  c #9A0705",
"r  c #881703",
"t  c #95120C",
"y  c #991607",
"u  c #891814",
"i  c #991D1B",
"p  c #991714",
"a  c #A40402",
"s  c #AE0601",
"d  c #A50B03",
"f  c #AD0902",
"g  c #AE050A",
"h  c #A40C0B",
"j  c #AC0B0B",
"k  c #A30408",
"l  c #B30601",
"z  c #B90403",
"x  c #B40902",
"c  c #B90A03",
"v  c #B50509",
"b  c #B80309",
"n  c #B30B0A",
"m  c #BD0C0D",
"M  c #A11301",
"N  c #A2130A",
"B  c #A91308",
"V  c #A31B14",
"C  c #A31918",
"Z  c #B1100D",
"A  c #982A04",
"S  c #892617",
"D  c #9A2617",
"F  c #8D3309",
"G  c #A43501",
"H  c #A02810",
"J  c #9B1F21",
"K  c #872723",
"L  c #9B2322",
"P  c #9A2925",
"I  c #993A2C",
"U  c #8C372D",
"Y  c #A22724",
"T  c #A13926",
"R  c #C20B10",
"E  c #8E5510",
"W  c #AF4C16",
"Q  c #866E0A",
"!  c #8D740B",
"~  c #9D7C00",
"^  c #987809",
"/  c #816117",
"(  c #977815",
")  c #8F781B",
"_  c #A17E00",
"`  c #A77D04",
"'  c #97452A",
"]  c #8A5A3B",
"[  c #905332",
"{  c #A45A3A",
"}  c #B2522F",
"|  c #8F6935",
" . c #AA603D",
".. c #C2571F",
"X. c #CD7B29",
"o. c #955A43",
"O. c #B94A43",
"+. c #A7564C",
"@. c #94674D",
"#. c #AF6D52",
"$. c #D17867",
"%. c #9D8300",
"&. c #98830A",
"*. c #998316",
"=. c #A38300",
"-. c #AB8600",
";. c #A58B01",
":. c #AA8D01",
">. c #A98E09",
",. c #B38D00",
"<. c #AB9301",
"1. c #AC930B",
"2. c #A59103",
"3. c #B59400",
"4. c #BA9500",
"5. c #B59A01",
"6. c #BC9C01",
"7. c #BB9D0B",
"8. c #B5960C",
"9. c #A8941A",
"0. c #B59C1B",
"q. c #B89C16",
"w. c #BCA305",
"e. c #BCA312",
"r. c #BAA21B",
"t. c #9A8A2A",
"y. c #A99322",
"u. c #B4962B",
"i. c #BBA323",
"p. c #C09E02",
"a. c #C59C07",
"s. c #C39E18",
"d. c #C58B1D",
"f. c #C2A303",
"g. c #CBA604",
"h. c #CDAC03",
"j. c #C5A30C",
"k. c #CBA50A",
"l. c #C9AA0C",
"z. c #C6AB06",
"x. c #D2AD03",
"c. c #D5AA07",
"v. c #CDB20B",
"b. c #DCB504",
"n. c #D6B40A",
"m. c #DBBC0C",
"M. c #D9B707",
"N. c #C3A514",
"B. c #CDA411",
"V. c #C4AA12",
"C. c #CDAB13",
"Z. c #C3A41B",
"A. c #CCAA1C",
"S. c #C4AB1A",
"D. c #D3AE12",
"F. c #D6AA1A",
"G. c #CCB113",
"H. c #CBB21B",
"J. c #D4B312",
"K. c #D4B31A",
"L. c #D9B818",
"P. c #E2BB08",
"I. c #E4BD14",
"U. c #DB8C3E",
"Y. c #D79633",
"T. c #C98437",
"R. c #C6A825",
"E. c #CEB725",
"W. c #D7B825",
"Q. c #CCAF32",
"!. c #C6B132",
"~. c #D2B12C",
"^. c #DFC206",
"/. c #DDC116",
"(. c #E8C30A",
"). c #F5CC0B",
"_. c #F4CB08",
"`. c #FED403",
"'. c #FADA03",
"]. c #F6D50B",
"[. c #FDD30B",
"{. c #FADB0B",
"}. c #F5D706",
"|. c #E9C716",
" X c #F3CC17",
".X c #F4D41C",
"XX c #FBD51A",
"oX c #FBD717",
"OX c #EED018",
"+X c #DEC228",
"@X c #DCC538",
"#X c #E8C628",
"$X c #F2CC2A",
"%X c #FDDA23",
"&X c #F8D629",
"*X c #ECCC35",
"=X c #E9CD37",
"-X c #F3CD33",
";X c #FDDC34",
":X c #FEDD3C",
">X c #F4D438",
",X c #EAD339",
"<X c #FCE237",
"1X c #C08354",
"2X c #E0935F",
"3X c #E0BF4C",
"4X c #D9887C",
"5X c #C88878",
"6X c #E0887E",
"7X c #FCB669",
"8X c #DCCC59",
"9X c #D7C756",
"0X c #DDC04A",
"qX c #F4C741",
"wX c #FAD947",
"eX c #FACC55",
"rX c #FDDF54",
"tX c #FFD553",
"yX c #E6CB52",
"uX c #FDE549",
"iX c #FFE357",
"pX c #FADA69",
"aX c #FFC676",
"sX c #FCD877",
"dX c #F0CC63",
"fX c #FFE173",
"gX c #CD9385",
"hX c #E38C82",
"jX c #E79F90",
"kX c #C4BB9B",
"lX c #D4B590",
"zX c #FEA59D",
"xX c #C9BBA2",
"cX c #D4BCAB",
"vX c #FEB5A9",
"bX c #C6C29F",
"nX c #FFDA8B",
"mX c #FEC39A",
"MX c #FFD290",
"NX c #FDE688",
"BX c #F7E696",
"VX c #FFEDA5",
"CX c #FFE8A8",
"ZX c #FCF4A3",
"AX c #FFF4AD",
"SX c #FFECB8",
"DX c #FFF2B3",
/* pixels */
"f s s f f g x x f f f f l f l s d d s f v x v l s f f l s l l l g l l z z z l x l l v v b x x x x x x x x x x x x l l l l l l s l ",
"l f f l x f f f f f l f f f f s s a s s l l l v f l l s l s l l f v l l l z z z l l v z x x l l l x x x l l l z l l s l s l s l l ",
"l s f s f x f f f f s s s f f f s v l l v f f f f f s s l v l l g s l z z z l z l l l l x s l x x l x x l l l l l l l l s l v s l ",
"f s f s f f x l l f s s s s s s s l l l l g f s f f l x l s v s s s l z z l l l l l l l l l g l l l l x l l l l l l l s l l l l f ",
"f s s s f f f f s f f s f s s s s s s l l g s f s s l l l l l l l l s f l s s d s s l l l l l l l l l l l l l l l s l s l s l s l ",
"s s s s f l l s s s s s l f s s f s l s s f s s s s l l z z l l z l s s s s f s s l s l l l z l l l l l l l l l l l l l l v l l l ",
"f s s s s l f s f s s f s s s s d d s l l l f d f g l v z z z z l l l s s g l l l l l l x z l l l l l l l l l s l l s l v l s l l ",
"s s s s s f s f s s s s s s s s k s s s s s f s s s b v z z l l l l l s s l l z z l l l z l l l l l l l l l l l l l l l s l s l l ",
"s s s s l s s s s s s s s s s s g s g g s a s s f s l l l l a f s l l z s v s b l b b b f v v b l l s l l s l l l l s l l l s l l ",
"f s s s f s f s s s s s s s s a s l s s s s a s v l l n g B N q w e h h s x l s b R l s n g l v l l l l l l l l l l l l s l s l f ",
"s s s s f s s s s s s s s s s s l s l l l s l l s l s a e 0 0 $ $ K K P N f l b l s l s f s l l l l l l l l l s s l s s s l l l l ",
"s f s s f s s s s s s s a s s s l l s s s l l l z s s q % + O O o o . O { t Z e n s f f s l b l l l l s l l l l l l l l l l s v f ",
"s s s s f s s s s s s s l s s s l s s s s l v b b g q r W s.a.-.` ` ` ) 3 : K L e g j s l x v f v l l l l l l v s l l s l l s v x ",
"l f s s s s f s s s s s s s s s s s f a s l v l k q r X.eX-X.Xb.b.n.K.i.,   # +.D h a v v l f l s l l l l s l l l l l l l l l l l ",
"s f s s s f s s s s s s s s s a s s s k s l l f M G Y.-X-X%X_.`.].(.J.N.9.! / E #.D e b z z x s l l v l l v l l l l s l s v s l x ",
"s s s s s s s s s a s s s s s l s s s g s v l d A 7XpX-X&X.X].[.).OXl.K.V.q.y.- { ' p v z z x l l l v l v l l l l v l l l l l l l ",
"s s s s l s s s s s a s s s s s s s a l b l l d E aXiX-XI.4.6.6.6.5.<.V.G.j.q.! 4 ] I e s z l s s s l l l l x x l l s l l l l l x ",
"l a s s s s s s s s s s a s l a s a a s s v s A aXfXwX-XB.=.~ %.=.%.;.e.K.l.l.q.1 = jXP e l l m l l l l l l l l l l l l l l l l l ",
"s s s s s s s a s a s s l s s s v s l l x a M ..sXeXZ.6.7.j.f.w.p.a.a.,.<.<.j.s.^ 4 6 5XV l x f l l l l x l l x l l l l l l l l f ",
"s s s s l s s l s a s a s s s s a v a l l M G 7XpX0X;.=.6.D.G.L.K.K.D.4.%.<.k.s.s.( * 5XL j s s l l s l l l l l l l l l l l l l l ",
"s s s s s s s s s s s s s s f s x l s s a y 7XsX0Xr.8.j.W.=X,XwXwX*XD.g.a.4.4.j.B.8.4 6 5Xi a n l l l l l l l l l l l l l x l x x ",
"s s s l s s s s s s s s s s s s a l a f w F aXpX!.1.K.K.#XrXrXrXrXwXz.n.P.a.:.a.k.s.t.& o.u Z g l l l l l l l l l l l l x l z l l ",
"s a s s s s s s s s s s s f s f f s l N D mXsXQ.r.S.=X*XW.R.s.R.r.e.6.n.I.x.w.6.g.S.t.* o.K t s s l l l l l l l l l l x z l x x x ",
"s l s s s s s s s s s s s s s s f a d y #.DXsX1.1.+XwXiXW._ %.%.%.%.:.n.(.b.h.:.5.H.y.* ] +.t d l l l l l x l l l l l x x x l x l ",
"s s s s l s s s s s s s f l s f d h t I 1XBXpX1.5.+XuXwXF._ %.e.G.w.;.4.n.I.h.<.5.l.0.Q ] @.O.C a l l l l x l l l l l l l l l l f ",
"s s s l s s s s s s s s s s f f B t u #.MXNXeX1.w.+X<X>XB._ ;.L..X/.;.=.x. Xn.<.w.l.w.u.< 3 zXJ s l z l l l l l l x l x l l l l l ",
"s s s s l s s s s s s a s f s f a t > lXAX8XR.e.K.$XoX&Xl.=.:./.%X/.-._ h. Xn.p.5.5.V.0.< 2 vXP a x l z l z l l l l x l f l f l x ",
"s s l s s s s s s s s l s f s s x 0 @ xXVX8X2.V.$X;X{.}.z.%.;.m.OXm.-.=.h.OXb.c.4.<.l.i.< 2 vXP a l x z l l x l l l l l l l l l l ",
"s s l s s s s s a l s s s l f s n 0 @ xXZX8X%.V.*X<X{.{.h._ ;./.XXI.-._ h.OX(.m.4.:.g.S., = vXL d l l z l z x l x l x x x x x x l ",
"s l s s l s s s s s s s s s s s a 0 @ xXAX8X>.j.$X<X{.].g._ 2.L.$XI.=.=.x.oXXXb.3.,.g.q., = 4XJ a x l x l x x l l l x x l x x l l ",
"s s l s s s s s s s s a s s f f n J X bXZX8X>.N.*X:XoX XD.=.=.8.f.w.;.f.(.}.oXM.6.,.k.S.1 2 hXp s l z x x z x l l x x l x f x x f ",
"l s l s s s s s s s s s f s s s j P @ kXZX9X>.S.*X:X&X.XC.~ ~ %.~ =.=.^.}.}.].m.4.-.c.e., = 6XJ a x z l x x x l x x x x l x x l x ",
"l s l l s l l s l s s s f s s f h L @ xXZX9X2.e.*X:XXXXXz.%.%.f.h.x.x._.`.'.].b.5.<.x.s.< : 6XC f l x l l l x x x l x l z l x l x ",
"l l l l l s l l l l s s s s f a N I @ cXZX8X2.v.*X:XXXXXz.%.:.L.XX[.[.[.'.'.`.P.5.;.g.s.5 = hXp d l x x l x l z l x l x x x l x x ",
"l l l s l s l s s s s l l s f f h P X xXZX8X2.e.*X:XoX[.z.%.;.L.].'.{.{.}.}.(.b.5.:.k.R.< = hXi s x x x x l z l l z x l l x z x l ",
"l s l s l l l l s s s s s s s a d D @ cXAX9X9.e.*X;XoX[.C.%.;./.].}.`.'.}.}.b.x.5.;.F.r., 2 hXJ a x x x x x x x x l x x l l x x x ",
"l l s l l l s s l l s s l s s s d D @ cXVXdXi.e.K.$X&X%XA._ -./.oX`.`.`.[.).b.f.5.5.l.0.< = vXJ h x x x l x x x l x x x x x l x l ",
"s l s l s l s s s s s s s s l s f t > gXZXNXpX1.6.|.;X&XA.~ =.^.].`.`.`.[.).n.3.4.C.w.9., 2 zXY s x x x l l z l z l l x z x x l l ",
"l s l l s l s s s s s s l s s s g p U #.bXBXpX1.<./.<X:XE.~ -.I.].'.`.`.[.I.D.-.4.C.e.9 8 @.O.h s l v x x x x x x x l z l x l l x ",
"l l l s s l s l s l s s s s l s s k i 7 #.DXsX8.5.L.uXuX~.~ -.I.oX'.`.`.I.b.B.,.,.K.9.& @.#.p g l n x x l z x x l x x l x x x z x ",
"s l s l s s s s s s s s l s l f a n q S #.SXdXQ.q.A.=X,X@Xr.F.*X:X&X_._.P.x.4.4.p.V.9.& { K e v l l l x l x l x l x x x z x x l l ",
"s l l s s l s s s s f s l s s s v a B t +.vXBXpXQ.<.H.H.@XiXrXuXuX:XP.x.n.z.3.p.V.e.t.& { D k m l x z l x l l l l l x z x x l l l ",
"l l s l s s s s s f f s s l l l s v a N Y  .MXsX0XZ.q.7.E.,XwX*X$X$Xx.f.6.6.4.j.e.y.8 ] $.y f l l x l x l x l l l l l x l l l l l ",
"s l s s s l s s s s s s s s s l l s n f w G  .nXsX0X-.=.w.l.H.K.K.n.v.2.%.-.g.k.i.) * 4XY h v x l l x x z l l x l l l l l l l x l ",
"l l s l s f s s s s s f s s s l l x s j x N W 2XaXqXk.p.w.z.f.7.w.5.w.2.<.5.K.q.*.4 ' T d l n l l x l l x l l z l l l l l x l l l ",
"s l s s s s s f s s s s l s l l x z k g n a V T 2XeX-X|.h.-._ _ %.=.;.f.J.l.C.q.5 ; S w m x x n x l l l l l x l x l l l l l l l l ",
"l s s s s s s f s s s s s s l l l s l f s f f M ..dXwXoXb.w.p.p.6.6.,.c.c.c.A.^ E { V s l l x x x l l l l l x x x l l l l x z x l ",
"l s s s f f s s k s s s s l s l l l s s s x l B W U.wX%XOXOX XOX&X|.D.D.B.s.u.; { A h n n x n l x x l l l l l x x z x x l x z x l ",
"s s s s s s s s s s s l l f l l l s s s s v v a M W Y.>X-X%XoX_._.I.D.R.*.Q E E y j v z g f l z z x l z x l z x l l l l l l l l l ",
"s s s s s l s s s s s l l l l l s s s s s v v s d r F Y.tX>X|.|.n.L.E.u.5   o r N v b l f l z z l x x x l x x x l l l x l l l l x ",
"s l s s f s f f s s l s l f l l l l k s l z l l x f y G 1XR.y.&.^ ( t.) E : I p j l z z x x x l z x x l x x x l l l l l l l l l f ",
"f s s s s f f f s f s s l l l v s l s s l l l l s a f d G + . X X X   . { S p j g l x x x x x x l l l x z l l l l l l l l l l x l ",
"s s s s f s a f s s s s f f l f h s s l f f f f f Z f s d q y ' ' ' U S O.p n l s f f l x l l s l l x l x l l x l l l l l l l l x ",
"s f f f l k s f f f l s v f l v f d l l f f d B d d s v v s d N p p u i V k l z l s f f x l s s l x l l l l l l l x l l l l x l l ",
"s f f f s s s s s s v s g l l f f d x x x l f f n f n a b l c s l f d d s l z z z x l l l z l l l l l l l l l l l l z x l l l l x ",
"l f g f f f g f s g s f f f v f f l l x x x x x l x n v l l l z b l n f l x z z z v l x l z z x l l l l l l l l l l l l l l l l x ",
"s s s s s a s f s f s s l f l v z z l l z x l f f f x x g g v v l z l s l l l x z z v b l v l x l l l l l l l l l l l l l l l l x ",
"f s s f f f s f l s l f f l l l z b l l z z l l f f f f g l v l v l l s f f l x x x l v v l l l l l l l l l l l l l l l l l l l x ",
"f l l f f s f f f s s f v l l g s g g v n c x l l f f f l l l n v l g f x f l x l l f f s l s l l l l l l l l x l l l l x l l l x ",
"f f f f l f l f s s l l f l l l k g l l x z x x x f f f l l x x v g f l x x x x x f l x l l l x x l x l l l l l x x l x l x x z x ",
"l l f l l f l f f l l l l x x l l l l l x x x x x x x x x x x f l l x x l x x x l f x l x z z z z l x l x x x x l x x x x z x x l ",
"l f f s l f f l l f l l l x l x x x l l f f x x x x x x x x x x l x x x l x x x x x x x c c z z x x x z x x z x z l x x l x x l x ",
"x x l l x f l f f l l l l x l z x x x x f n n c x c c x x x x x l l z z c v n x x z z x x x x b x c z x x c x x x x z x z x x z c ",
"x x x l x f x x l l l x z l x x z n f f x f n c c x c x x x c x x l c z b v v c b z c x l x x x x x x x x x z x z x x x x x x x x ",
"x x x x x c x x x x x x x x x c x c x x x x c c c c c c Z x c c x c c c x c c x c c c c c c x c c x c x c c x x c c x x c c c c x "
};
