/* XPM */
static char *b1e6ecf2c20c46cce6b1837f4cc76526aijfHPtqY3OwmHbS[] = {
/* columns rows colors chars-per-pixel */
"65 65 159 2 ",
"   c #040300",
".  c #0D0C06",
"X  c #131106",
"o  c #161616",
"O  c #181818",
"+  c #2B2300",
"@  c #2D2D2D",
"#  c #2F2F31",
"$  c #2F3032",
"%  c #333334",
"&  c #3A3A3B",
"*  c #393835",
"=  c #403F3B",
"-  c #645300",
";  c #6A5D1E",
":  c #786712",
">  c #7C6805",
",  c #544E32",
"<  c #5E593F",
"1  c #695D22",
"2  c #685D27",
"3  c #6B6232",
"4  c #3F4041",
"5  c #474645",
"6  c #56554F",
"7  c #595957",
"8  c #625D44",
"9  c #7E7445",
"0  c #626363",
"q  c #6C6C6C",
"w  c #6E6F71",
"e  c #747474",
"r  c #7C7C7D",
"t  c #767779",
"y  c #836D03",
"u  c #897303",
"i  c #967D00",
"p  c #997F01",
"a  c #827532",
"s  c #9D8301",
"d  c #A28701",
"f  c #A58900",
"g  c #AB8E01",
"h  c #AE9101",
"j  c #B49601",
"k  c #B79801",
"l  c #BB9D02",
"z  c #BC9E08",
"x  c #AC9212",
"c  c #BA9F18",
"v  c #BDA00E",
"b  c #BCA21C",
"n  c #BDA113",
"m  c #BEA422",
"M  c #BEA628",
"N  c #C09F00",
"B  c #C3A302",
"V  c #C9A601",
"C  c #CBA901",
"Z  c #CAAB0E",
"A  c #D3AF01",
"S  c #D6B201",
"D  c #D9B401",
"F  c #CAAC13",
"G  c #D4B61E",
"H  c #D8B91F",
"J  c #E2BC01",
"K  c #E1BE17",
"L  c #E2BF18",
"P  c #C5AC2C",
"I  c #C9AF2E",
"U  c #C4AA25",
"Y  c #CBB02C",
"T  c #D7BA28",
"R  c #C7AE30",
"E  c #CCB334",
"W  c #D6BB32",
"Q  c #E7C201",
"!  c #E9C302",
"~  c #EFC803",
"^  c #F5CD02",
"/  c #FFD602",
"(  c #FFD902",
")  c #FFD80C",
"_  c #FFDA16",
"`  c #FBD71F",
"'  c #EECF29",
"]  c #F0CF28",
"[  c #F0CF25",
"{  c #FEDB29",
"}  c #FEDA20",
"|  c #EBCC34",
" . c #ECCE3B",
".. c #EFD13E",
"X. c #F1D237",
"o. c #FFDE36",
"O. c #F0D13E",
"+. c #FFE232",
"@. c #A39449",
"#. c #BFAB46",
"$. c #B7A547",
"%. c #CAB54E",
"&. c #DBC242",
"*. c #E4CA48",
"=. c #EFD243",
"-. c #EDD24B",
";. c #F5D84C",
":. c #FDDF47",
">. c #EFD551",
",. c #F7DD5C",
"<. c #F8DE5B",
"1. c #FEE04B",
"2. c #FDE25C",
"3. c #FFE150",
"4. c #F7DD60",
"5. c #FEE362",
"6. c #FFE963",
"7. c #FEE56C",
"8. c #FFE97C",
"9. c #7E7F80",
"0. c #808183",
"q. c #8B8B8C",
"w. c #949495",
"e. c #9C9C9D",
"r. c #979799",
"t. c #B8B39E",
"y. c #9E9EA0",
"u. c #ABAAA8",
"i. c #BDB9A3",
"p. c #B6B6B6",
"a. c #B8B8B7",
"s. c #BDBDBE",
"d. c #D9CC89",
"f. c #CDC59B",
"g. c #EBDD97",
"h. c #FFEC8E",
"j. c #F9E891",
"k. c #FFF3AE",
"l. c #FFF3B0",
"z. c #C5C5C5",
"x. c #C7C7C9",
"c. c #C7C8C9",
"v. c #CBCBCC",
"b. c gainsboro",
"n. c #D0D0D0",
"m. c #FFFADA",
"M. c gray90",
"N. c #EDEDED",
"B. c #F5F4EB",
"V. c gray96",
"C. c #F4F4F4",
"Z. c #F6F6F6",
"A. c gray97",
"S. c #F3F3F3",
"D. c #F8F8F8",
"F. c #F9F9F9",
"G. c #FAFAFA",
"H. c #FCFCFC",
"J. c #F9F9F9",
/* pixels */
"H.N.V.N.V.S.S.S.N.F.N.F.N.F.N.F.N.J.N.C.C.N.J.N.J.N.H.N.H.N.C.N.C.C.N.J.N.H.N.J.N.A.N.A.S.S.C.N.F.N.F.N.F.N.A.N.V.N.S.C.N.A.N.F.M.",
"V.S.S.S.S.S.S.S.S.V.S.V.N.S.S.S.N.C.C.C.C.C.J.N.C.N.C.N.C.N.C.C.C.C.C.C.N.C.N.C.S.C.N.C.S.S.S.S.C.S.C.N.S.S.C.S.C.C.S.S.S.C.S.C.N.",
"N.V.N.V.N.S.S.S.V.N.F.N.F.N.F.N.J.N.C.C.N.J.N.H.N.H.N.J.N.J.N.C.C.C.J.N.J.N.H.N.G.N.A.N.S.S.N.V.N.F.N.F.N.A.N.A.N.C.S.S.A.N.A.N.H.",
"V.S.V.S.S.S.S.S.S.S.N.V.N.V.N.V.C.C.N.C.C.N.C.N.C.N.C.N.C.C.C.C.C.N.N.C.N.J.N.C.N.V.S.C.S.S.C.S.V.N.A.N.A.N.C.S.V.S.S.S.S.V.N.C.N.",
"F.N.F.N.V.S.S.S.S.V.N.V.N.F.N.V.N.J.N.C.C.N.C.N.J.N.J.N.C.N.A.N.C.J.N.C.N.J.N.J.N.A.N.V.S.S.V.N.A.N.A.N.A.N.A.N.C.S.C.V.N.A.N.F.N.",
"N.V.N.V.N.V.S.S.V.N.F.N.F.N.F.N.H.N.C.C.C.C.N.J.N.J.N.J.N.J.N.J.C.N.J.N.J.N.J.N.A.N.A.S.C.S.S.V.N.F.N.F.N.A.N.A.N.C.C.N.V.N.A.N.F.",
"S.S.S.V.S.S.S.S.S.S.S.S.V.S.V.S.S.N.N.C.C.C.C.C.N.C.N.C.N.C.N.C.N.C.C.S.C.N.N.C.C.S.C.S.S.S.S.S.S.S.S.S.S.S.S.C.S.C.S.S.S.S.C.S.S.",
"F.N.V.N.V.S.S.V.N.V.N.V.N.F.N.V.N.J.C.C.C.N.J.N.H.N.H.N.H.N.J.N.C.C.N.J.N.J.N.J.N.A.N.A.N.S.V.N.A.N.A.N.F.N.A.N.V.S.C.V.N.A.N.A.N.",
"N.V.S.V.S.S.S.S.V.S.V.S.V.S.V.N.C.C.C.N.C.C.N.J.S.V.S.V.N.S.S.C.C.C.C.N.A.N.A.N.A.S.V.S.S.S.S.C.N.A.N.V.N.V.N.V.N.C.C.S.C.S.C.N.A.",
"N.V.N.V.N.S.S.S.V.N.V.N.V.N.V.S.J.N.C.C.C.C.N.C.N.V.N.N.M.N.M.M.M.M.N.M.S.N.A.N.A.N.A.N.S.S.N.A.S.A.N.A.N.A.S.A.N.V.C.N.V.N.A.N.H.",
"H.N.V.N.V.S.S.V.N.V.N.F.N.F.N.V.N.J.N.S.C.N.J.N.F.N.C.0 % % * * * % % % w.H.N.F.N.A.N.A.S.S.C.N.A.N.A.N.G.N.A.N.A.S.S.C.N.A.N.F.M.",
"S.S.S.S.S.S.S.S.S.S.S.V.S.S.S.V.N.C.C.S.C.N.C.C.N.N.b.*                 e N.M.N.S.S.S.C.S.S.S.S.S.S.S.S.S.S.C.S.C.S.S.S.S.S.S.C.C.",
"N.F.N.V.N.V.S.S.V.N.V.N.V.N.F.N.J.N.C.C.N.A.N.H.q.& & @.U v B h f g f s 1 & 5 z.H.N.F.N.V.C.S.V.N.F.N.F.N.F.N.F.N.C.C.N.A.N.A.N.H.",
"V.N.V.S.S.S.S.S.S.V.S.F.N.V.S.V.N.C.C.C.C.S.C.N.t   X %.+./ / J D D D C -   . a.N.V.N.V.S.C.C.S.C.N.A.N.F.N.V.N.V.S.C.S.S.C.N.V.N.",
"F.N.V.S.V.S.S.S.S.S.N.V.N.V.N.V.N.J.C.C.C.N.N.0 9 #.%.[ ) / / ^ ^ ! D A h u u , w.A.N.A.S.S.S.N.A.N.V.N.V.N.V.S.C.S.S.S.S.V.N.A.N.",
"N.F.N.V.N.S.S.S.V.N.F.N.F.N.F.N.J.N.C.C.N.J.b.% a 5.2.) / / / / / ^ D S C v l + t N.A.N.S.S.S.V.N.A.N.F.N.F.N.A.N.C.S.S.V.N.F.N.H.",
"S.S.S.S.S.S.S.S.S.S.S.S.S.S.S.S.S.S.S.S.S.v.6 y.d.5.2._ D k k k j j g A A C l p 1 q N.S.S.S.S.S.C.S.S.S.C.S.S.S.S.S.C.S.S.C.S.S.N.",
"F.N.F.N.V.S.S.S.S.V.N.F.N.V.N.F.N.V.S.S.V.u.o x.l.,.2._ V i i p p i p B S A N B - # b.S.S.S.V.N.A.N.A.N.G.N.A.N.V.S.C.V.N.A.N.A.N.",
"N.V.N.V.N.S.S.S.V.N.V.N.V.N.V.N.V.N.V.V.r.7 u.g.8.-.b k l B B B N B B j g j C B s : 6 z.V.S.N.A.N.A.N.A.N.F.N.A.N.C.S.N.A.N.A.N.F.",
"N.V.S.V.S.S.S.S.V.S.V.N.V.S.V.S.V.S.S.V.w * B.h.5.*.s i k D D D D S A f i f A B N p X p.V.S.S.A.S.A.N.V.N.A.N.V.S.S.S.S.V.N.A.N.A.",
"F.N.F.N.V.S.S.S.N.V.N.F.N.F.N.F.N.V.N.w r i.h.7.&.c B N T =.=.=.=.| S B B l j B V j y 6 e.S.S.N.A.N.A.N.F.N.A.N.V.S.S.S.N.A.N.F.M.",
"S.S.S.V.S.S.S.S.S.S.V.S.S.S.S.S.C.N.M.@ 0.m.5.5.R f S S | 5.2.5.5.;.D D D V p V C z k + e A.S.S.S.S.S.C.S.S.S.C.S.S.S.S.V.S.C.S.C.",
"N.V.N.V.N.S.S.S.V.N.F.N.V.N.V.N.A.S.M.% 9.m.5.I z F  ...T b b m M c j J J A N j l C k + t V.S.V.N.A.N.F.N.A.N.A.N.C.C.S.V.N.A.N.H.",
"F.N.F.N.V.S.S.S.S.V.N.V.N.F.N.V.N.V.M.@ 9.m.,.x k L 2.5.I i i i i i s ! ~ S S f k S l + w A.S.N.V.N.F.N.V.N.A.N.C.S.C.V.N.A.N.A.N.",
"V.S.S.S.V.S.S.S.S.S.N.V.N.V.S.V.S.n.q q.f.h.,.x k K 2.o.F i s C D B s k D ! S f k A l u 2 9.N.N.V.N.A.N.A.N.C.S.C.S.C.S.S.C.N.A.N.",
"N.V.N.V.N.S.S.S.V.N.F.N.F.N.F.N.H.p.o v.k.2.<.x k K <._ C i s ! / ! s i C ^ D f k A z B - @ M.V.N.A.N.H.N.A.N.A.N.C.C.N.V.N.A.N.H.",
"V.S.S.S.S.S.S.S.S.V.S.S.S.S.S.V.V.p.o x.k.>.P z G X.} ) C i s Q ( ! s i C ^ D B k k C B - % M.S.V.S.C.N.C.S.V.S.C.S.S.S.S.C.S.C.N.",
"F.N.V.N.S.S.S.S.S.V.N.V.N.V.N.F.S.p.o x.l.*.s C  .1./ / C i s ! / ! s i C ^ D D k d A C - % M.S.A.N.A.N.A.N.A.N.V.S.S.S.N.A.N.A.N.",
"N.V.N.V.S.S.S.S.V.N.V.N.F.N.V.N.F.p.o c.k.*.s C | 1.) ( C i s ! / Q s i C / ! D k f A V - @ M.A.N.A.N.A.N.A.N.A.N.S.S.S.V.N.A.N.H.",
"S.V.S.S.S.S.S.S.S.S.V.S.S.S.V.S.A.a.O x.k.*.s V  .1./ / C i s ! ( Q s i C ( ( J k f A B - % M.V.S.C.S.C.S.S.N.V.S.S.S.S.C.S.S.S.A.",
"F.N.F.N.V.N.S.V.N.V.N.F.N.F.N.V.S.p.O x.k.*.s V | 1./ / C i s l C l s B Q ( / J k f A C - % M.N.A.N.A.N.F.N.F.N.A.S.S.C.N.A.N.A.M.",
"N.V.S.S.S.S.S.S.V.S.V.N.S.N.V.S.A.p.O x.l.*.d C | 1./ ( C i i i i i s ! ( / ( D k f A B - $ M.C.S.A.N.C.S.A.N.V.N.S.S.S.V.S.A.N.A.",
"N.A.N.V.N.C.C.N.A.N.A.N.A.N.A.N.F.a.o c.l.*.s V | 1.) / C i s l C C C ^ ( / / J k f A B - $ M.V.N.Z.N.F.N.Z.N.Z.S.S.S.S.S.S.Z.N.A.",
"H.N.A.N.A.S.C.C.N.A.N.A.N.F.N.A.S.a.O c.l.*.d V | 1./ / C i s ! ( ( / / / / / J k f A V - % M.S.Z.N.F.N.F.N.F.N.V.S.S.S.N.Z.N.Z.N.",
"C.N.C.S.C.S.C.C.C.C.C.C.N.A.S.C.C.a.O c.l.*.s C | 1./ / C i s ! / / / / / / ! D k f A B - % M.S.S.S.V.S.S.N.S.S.S.S.S.S.S.S.S.V.N.",
"M.H.N.A.N.C.C.N.A.N.A.N.A.N.A.N.F.a.o x.l.*.d V  .1./ / C i s ! ( / / / / ^ D D k f A Z - $ M.Z.N.Z.N.F.N.F.N.Z.N.V.S.S.Z.N.Z.N.H.",
"A.N.A.N.C.S.C.S.N.C.N.A.N.A.N.A.S.p.o x.k.>.P z G X.{ ) C i s Q / / / / / ^ D N k k C B - # M.S.V.N.Z.N.Z.S.V.S.S.S.S.S.S.V.S.V.N.",
"H.N.A.N.C.S.S.C.S.A.N.A.N.A.N.A.S.a.o v.k.<.,.x k H 3._ C i s ! ( / / / / ^ D f k A N N - # M.S.V.S.Z.N.Z.N.Z.N.S.S.S.S.N.Z.N.Z.N.",
"N.A.N.A.N.C.C.N.A.N.H.N.A.N.A.N.A.n.w q.f.h.,.x j G 2.o.F i s ! / / / / ^ ! S f k A l y 3 0.N.V.N.Z.N.F.N.F.N.V.N.V.S.S.V.N.F.N.H.",
"N.C.C.C.S.C.C.C.C.N.S.S.C.S.C.C.S.S.M.# 9.m.,.x k [ 2.5.P i s Q / / / / ! S S f j A k + e Z.S.V.S.S.S.S.S.S.S.S.S.S.S.S.S.S.S.S.S.",
"H.N.A.N.A.S.S.C.N.A.N.H.N.A.N.A.N.A.M.@ 9.m.5.E n Z  ...W M U ' { ` ^ ~ J A N j l C k + w V.S.N.Z.N.F.N.F.N.F.N.Z.S.S.S.N.V.N.F.N.",
"N.A.N.A.S.C.C.N.C.S.A.N.A.N.A.N.S.S.M.@ 0.m.5.5.R f S S | 5.5.5.5.;.D S S C p C C N k + e S.S.S.S.Z.N.Z.N.Z.N.V.S.S.S.S.V.S.Z.N.F.",
"N.C.N.A.S.C.C.S.C.N.A.N.A.N.V.N.V.S.N.r r t.j.7.&.n v l H O.......| D B N l j C B j : 8 u.S.S.S.N.Z.N.F.N.Z.N.V.N.S.S.S.S.S.Z.N.F.",
"H.N.A.N.A.N.C.C.N.A.N.H.N.H.N.A.N.A.N.S.e % B.h.2.*.s i k D D D S S S f i d A B N p X s.S.S.V.N.Z.N.F.N.F.N.F.N.Z.S.S.S.N.F.N.F.M.",
"S.C.S.C.S.C.S.S.C.S.C.N.C.S.C.C.C.S.S.C.y.0 u.g.8.=.v l l v B B B l N j g k A B f : 7 v.Z.S.S.S.S.S.S.S.S.S.S.S.S.S.S.S.S.S.S.S.C.",
"M.A.N.A.N.C.C.N.A.N.A.N.A.N.A.N.A.N.C.C.S.s.o c.k.1./ / C i i i i i s V S S A C - # N.N.V.V.S.V.N.F.N.F.N.F.N.Z.N.S.S.S.Z.N.Z.N.H.",
"H.N.A.N.A.N.C.C.N.A.N.A.N.A.N.A.N.C.C.S.A.c.7 r.d.3.} / D k k k k k h C A C C p 2 e M.V.S.S.S.N.Z.N.Z.N.Z.N.Z.N.V.S.S.V.S.V.N.F.N.",
"A.N.A.N.C.S.S.C.S.C.S.A.N.A.N.A.N.C.N.S.C.N.M.% a 6.2._ / / / / / ^ D S C B l + w V.S.S.S.S.S.S.Z.S.Z.N.V.S.Z.N.S.S.S.S.N.S.S.Z.N.",
"N.H.N.A.N.C.C.N.A.N.A.N.F.N.A.N.A.N.V.S.S.V.M.q 9 $.$.' ) / / ^ ^ ~ D A g u u , y.N.F.N.V.S.S.Z.N.Z.N.F.N.Z.N.Z.N.V.S.S.V.N.F.N.H.",
"C.N.C.S.S.S.S.S.C.C.S.V.N.A.S.C.S.V.S.S.S.S.S.S.e   . %.+.( ( J D D D B -   . a.S.V.S.S.S.S.S.S.V.S.S.S.S.S.S.S.S.S.S.S.S.S.S.S.N.",
"H.N.A.N.A.S.C.C.N.A.N.A.N.F.N.A.N.V.S.S.S.N.A.S.e.& 5 @.U l l g d f d i 2 4 5 n.N.F.N.V.S.S.S.N.F.N.Z.N.F.N.F.N.V.S.S.V.S.Z.N.Z.N.",
"N.A.N.A.N.C.C.N.A.N.A.N.A.N.A.N.A.N.S.V.S.S.N.F.N.N.b.%                 e N.N.N.F.N.Z.N.S.S.S.V.N.Z.N.Z.N.F.N.Z.S.S.S.N.V.N.Z.N.H.",
"N.C.N.A.S.C.C.S.C.S.A.N.V.N.A.N.V.S.S.S.S.V.S.V.N.V.M.0 & & & & & & & & w.V.Z.S.V.S.S.S.S.S.S.S.S.V.N.V.S.V.N.V.S.S.S.S.S.S.V.N.A.",
"H.N.F.N.A.N.C.C.N.A.N.A.N.A.N.H.N.V.N.S.S.N.A.N.A.N.F.M.N.M.N.M.M.N.M.N.M.F.N.F.N.Z.N.V.S.S.S.N.Z.N.F.N.F.N.F.N.V.N.S.S.N.F.N.F.M.",
"N.C.N.C.C.C.C.C.C.S.C.S.A.N.C.N.V.S.S.S.S.S.S.S.B.V.N.V.S.V.S.V.S.S.V.S.V.S.S.S.S.S.S.S.S.S.S.S.S.V.S.V.N.S.S.V.S.S.S.S.S.S.V.S.C.",
"N.A.N.A.N.C.C.N.V.N.A.N.A.N.H.N.A.N.S.S.S.V.N.A.N.F.N.F.N.V.N.V.S.S.A.N.Z.N.Z.N.Z.N.V.S.S.S.S.S.N.Z.N.Z.N.F.N.V.S.S.S.S.V.N.Z.N.F.",
"H.N.A.N.A.N.C.C.N.A.N.A.N.A.N.A.N.V.S.S.S.N.V.N.A.N.A.N.V.N.S.S.S.V.N.A.N.A.N.A.N.V.N.V.S.S.S.S.V.N.V.N.Z.N.Z.N.S.S.S.S.S.V.N.F.N.",
"C.S.C.S.C.S.C.C.C.C.S.C.S.C.N.C.S.S.S.S.S.S.S.S.S.S.S.S.V.S.S.S.S.S.S.S.S.V.S.V.S.V.S.S.S.S.S.S.V.S.S.S.S.S.V.S.S.S.S.S.S.S.S.S.N.",
"M.H.N.A.N.C.C.N.A.N.F.N.H.N.H.N.A.N.V.S.S.V.N.A.N.F.N.F.N.A.N.V.S.S.V.N.F.N.F.N.F.N.F.N.S.S.S.Z.N.Z.N.F.N.F.N.Z.N.S.S.S.Z.N.Z.N.H.",
"A.N.A.N.C.C.C.C.N.V.N.A.N.A.N.C.S.S.S.S.S.S.S.S.S.S.V.N.S.S.S.S.S.S.S.S.N.V.N.S.N.V.S.V.S.S.S.N.S.S.V.S.V.N.S.S.S.S.S.S.S.V.N.V.N.",
"H.N.V.N.V.S.S.C.N.A.N.A.N.A.N.A.N.V.S.S.S.S.A.N.A.N.A.N.A.N.V.S.S.S.N.A.N.A.N.F.N.Z.S.Z.S.S.V.N.Z.N.Z.N.Z.N.Z.S.S.S.S.S.N.Z.N.F.N.",
"N.A.N.A.N.C.C.N.A.N.H.N.A.N.A.N.F.N.S.S.S.V.N.A.N.F.N.F.N.V.S.S.S.S.A.N.F.N.F.N.Z.N.Z.N.S.S.S.V.N.F.N.F.N.Z.N.Z.S.S.S.S.Z.N.F.N.H.",
"N.C.C.S.C.C.C.S.C.S.C.N.C.S.V.C.S.S.S.S.S.S.S.S.S.S.S.S.S.S.S.S.S.S.S.S.S.S.S.S.S.S.S.S.S.S.S.S.S.S.S.S.S.S.S.S.S.S.V.S.S.S.S.S.C.",
"H.N.A.N.A.N.S.C.N.A.N.A.N.A.N.A.N.V.S.S.S.N.V.N.A.N.A.N.F.N.V.S.S.S.N.V.N.A.N.F.N.Z.N.V.S.S.V.N.Z.N.F.N.F.N.F.N.Z.N.S.V.N.Z.N.Z.N.",
"N.A.S.C.N.C.C.C.C.N.A.N.A.S.C.N.V.S.C.C.N.V.S.C.N.A.N.A.S.C.N.C.C.C.C.N.A.N.A.N.A.S.C.N.C.C.C.C.N.A.N.A.N.A.S.C.N.C.C.C.C.N.A.N.A."
};
