/* XPM */
static char *fa843d444aa94f48b80e811f921dc285Q7RdKj5uZlqg0jqD[] = {
/* columns rows colors chars-per-pixel */
"65 65 170 2 ",
"   c None",
".  c #0A0A0A",
"X  c #17100E",
"o  c #1D110E",
"O  c #151415",
"+  c #1C1412",
"@  c #181718",
"#  c #1B1A1B",
"$  c #2D1C16",
"%  c #2E1E19",
"&  c #251E1D",
"*  c #341D16",
"=  c #301E19",
"-  c #2B201E",
";  c #32221D",
":  c #3D251D",
">  c #211F21",
",  c #242324",
"<  c #2D2624",
"1  c #272728",
"2  c #282728",
"3  c #2C2B2C",
"4  c #352521",
"5  c #382924",
"6  c #322928",
"7  c #3B2F2B",
"8  c #3B302D",
"9  c #2F2E30",
"0  c #302F30",
"q  c #343334",
"w  c #3F3736",
"e  c #383738",
"r  c #3C3B3C",
"t  c #40271F",
"y  c #43281F",
"u  c #452920",
"i  c #4D2C22",
"p  c #502D22",
"a  c #4D3027",
"s  c #543126",
"d  c #523329",
"f  c #5D382C",
"g  c #5B372B",
"h  c #5B3B31",
"j  c #643E32",
"k  c #43403F",
"l  c #764E26",
"z  c #764E2C",
"x  c #7D542E",
"c  c #674135",
"v  c #684236",
"b  c #6D463A",
"n  c #6D483D",
"m  c #624339",
"M  c #744C36",
"N  c #734B3E",
"B  c #7F5536",
"V  c #7B523C",
"C  c #3F3F40",
"Z  c #403E40",
"A  c #444344",
"S  c #484748",
"D  c #4C4B4C",
"F  c #5F4B47",
"G  c #5E4E4C",
"H  c #504F51",
"J  c #545254",
"K  c #595253",
"L  c #595759",
"P  c #5C5B5D",
"I  c #614D48",
"U  c #764E42",
"Y  c #784F43",
"T  c #6C524C",
"R  c #755146",
"E  c #7A5244",
"W  c #77554B",
"Q  c #7D5548",
"!  c #7D584C",
"~  c #645654",
"^  c #6F5954",
"/  c #625D5F",
"(  c #745E59",
")  c #795F59",
"_  c #7D5C53",
"`  c #79625D",
"'  c #5F5F60",
"]  c #605E60",
"[  c #646364",
"{  c #686768",
"}  c #676868",
"|  c #6C6B6C",
" . c #6D6565",
".. c #786A68",
"X. c #706F70",
"o. c #747374",
"O. c #797779",
"+. c #7B7B7C",
"@. c #797373",
"#. c #80562F",
"$. c #805630",
"%. c #845B3D",
"&. c #91643D",
"*. c #845A45",
"=. c #80574A",
"-. c #845A4D",
";. c #865D51",
":. c #895F51",
">. c #826549",
",. c #966944",
"<. c #9D6F47",
"1. c #916549",
"2. c #976A4B",
"3. c #9D6F49",
"4. c #876355",
"5. c #8B6153",
"6. c #82635B",
"7. c #8E675B",
"8. c #84685D",
"9. c #936455",
"0. c #966A52",
"q. c #9D6F54",
"w. c #926759",
"e. c #95695C",
"r. c #9A6D5E",
"t. c #9A6D5B",
"y. c #816B67",
"u. c #8D6A60",
"i. c #936E63",
"p. c #9A6D60",
"a. c #9B6E60",
"s. c #9C6F61",
"d. c #9C6F61",
"f. c #8A706A",
"g. c #9D7062",
"h. c #9E7163",
"j. c #9D7062",
"k. c #97786E",
"l. c #857570",
"z. c #8E7A76",
"x. c #8A7C79",
"c. c #A27263",
"v. c #A17262",
"b. c #A17263",
"n. c #A87565",
"m. c #AA7665",
"M. c #AD7766",
"N. c #A97665",
"B. c #AE7967",
"V. c #AD7866",
"C. c #A47E73",
"Z. c #858385",
"A. c #838384",
"S. c #878788",
"D. c #8D8B8D",
"F. c #8C8B8C",
"G. c #918E91",
"H. c #949494",
"J. c #999799",
"K. c #9A989A",
"L. c #9B9B9C",
"P. c #A28983",
"I. c #A19FA1",
"U. c #A4A3A4",
"Y. c #A8A7A8",
"T. c #AFACAF",
"R. c #ADABAD",
"E. c #B2AFB2",
"W. c #B3B1B3",
"Q. c #C3C0C3",
/* pixels */
"                                                                                                                                  ",
"                                                                                                                                  ",
"                                                                                                                                  ",
"                                                            q 3 , @ q q q                                                         ",
"                                                      J r # G.A.[ S I.D.J.e # Z                                                   ",
"                                                  q D.U.Z.2 A S r , H C J r e L.H #                                               ",
"                                              L S } U.X.S + $ % $ $ = = = # J O.J S 9 Z                                           ",
"                                          q Z.R.o., Z < ; h ;.5.b Q 5.5.;.d % < q 9 Z.O.e #                                       ",
"                                        . J J.o.A X $ u =.s.s.s.Y 5.b.b.s.-.v h $ < +.{ H , .                                     ",
"                                      e o.q H 2 ; h ;.b e.h.s.s.Y :.n.b.s.-.=.a.;.d 4 6 9 9 O.C                                   ",
"                                    # P L.D + h ;.a.a.U w.-.t.s.E :.M.c.s.-.=.v.s.Q b h > +.F.[ 1                                 ",
"                                    O.X.J 6 i Q s.s.p.N 9.M 2.s.E :.B.c.s.=.-.M.s.Q -.e.m q C C ,                                 ",
"                                  q K.U.D = Y Q s.s.a.U 7.M ,.s.Y :.M.b.s.-.-.M.s.Q -.b.:.$ 9 O.o.q                               ",
"                                  S e [ A u Y Q b.b.a.N 9.M ,.t.E :.M.b.s.-.-.n.h.Q ;.h.;.: ' G.+.e                               ",
"                                A T.o.0 4 U =.Q n.n.p.U w.V 2.s.E :.c.b.s.-.Q h.s.Q ;.b.5.p > d 2 q @                             ",
"                                +.K.O.0 a e.-.Q n.c.p.N w.r.s.h.E :.h.s.s.-.=.s.h.Q -.s.:.U i 3 ] J.A                             ",
"                              3 o.[ q - Q h.-.Q n.n.a.U w.a.s.s.R 5.h.h.h.-.Q h.h.Q -.h.5.E E 7 [ L e @                           ",
"                              q } P r % 5.h.-.Q n.n.p.U w.a.s.s.E 5.h.w.5.-.=.h.h.Q -.9.=.E ;.% J L D #                           ",
"                              P Q.U.L = 5.h.-.=.b.s.p.N e.s.s.s.E 5.h.-.$.-.Q h.h.Q -.E z Q :.; K.Y.Z.3                           ",
"                              D L.o.e = 5.v.-.Q s.a.a.N w.p.s.s.R 5.h.-.#.*.Q h.h.Q -.*.l E :.; O.G.L #                           ",
"                              1 D A 3 % 5.h.-.Q h.s.s.N w.b.s.b.E 5.h.-.#.*.=.h.h.Q -.Q l E :.% A D r @                           ",
"                              D L.J.P % 5.v.-.Q s.s.a.U w.M.v.s.V ;.h.-.#.*.=.h.g.Q -.E l E 5.5 K.U.S.9                           ",
"                              q o.P 9 % 5.h.-.Q s.s.a.N e.M.s.s.E 5.h.-.#.*.Q s.h.Q :.4.>.8.x.Z | X.S @                           ",
"                              e o.[ S = 5.b.-.Q s.s.a.U w.B.v.v.E 5.h.;.#.*.=.h.h.Q Q ..o.o.] 0 L A J ,                           ",
"                              L T.I.P - 5.h.-.Q s.s.t.N e.B.v.s.E ;.h.-.$.*.=.h.s.Q W [ [ [ [ q | [ A.3                           ",
"                              C S.O.w $ 5.:.E =.s.s.s.N w.B.s.s.E 5.b.-.$.*.Q h.h.Q W ~ K K J 9 C [ P #                           ",
"                              3 P D q - 5.E l Q h.h.a.N w.B.h.s.E 5.h.-.B *.=.h.h.Q -.i.;.R ^ < J H S #                           ",
"                              L W.L.P - 5.E l Q s.r.r.U e.M.s.h.E ;.h.-.Q -.Q h.h.Q -.h.5.E :.4 K.Y.F.3                           ",
"                              S Y.F.S - >.V l Q h.<.q.N w.h.s.h.E ;.s.7.5.-.! s.g.Q -.h.5.E 5.- +.H.X.>                           ",
"                              , C 8 - - 5.*.V Q h.<.t.N w.a.s.s.E 5.s.a.h.-.=.h.g.Q -.h.5.E ;.$ A J e O                           ",
"                              r J @.o.; 5.h.-.Q a.<.t.N e.s.s.h.E 5.h.a.a.-.=.h.g.Q -.n.5.E 5.4 G.U.H.r                           ",
"                              3 } L.o.; 5.h.-.Q h.<.t.N w.s.s.s.E ;.h.s.s.-.=.s.h.Q -.B.9.E >.; F.Y.K.r                           ",
"                              C G.A.A % 5.s.-.Q s.q.t.b w.s.s.s.E 5.s.s.h.-.=.h.g.Q ;.V.9.R :.= +.F.[ ,                           ",
"                              1 J A 3 % 5.s.-.Q s.s.s.U e.s.s.h.E 5.h.s.s.=.Q h.g.Q -.N.9.E ;.% r e q @                           ",
"                              H U.L.o.; 5.b.;.Q b.s.a.N w.s.s.s.E 5.s.s.h.-.=.h.g.Q ;.V.9.E ;.4 O.' A.6                           ",
"                              J U.F.J = 5.h.;.Q s.s.a.U w.s.s.s.E ;.v.M.h.=.=.h.a.Q -.V.9.E ;.4 A.} [ ,                           ",
"                              C } S e $ 5.b.P.y...) ( F 6.s.s.s.E ;.v.B.h.=.=.h.s.Q -.n.9.E ;.; X.' C #                           ",
"                              3 H A q $ 5.h.i.f.P.e.6.I 7.a.s.s.E 5.v.B.h.=.Q h.h.Q -.h.;.E :.= S A C #                           ",
"                              L E.J.P = 5.b.=.z.C.s.a.( i.a.s.s.E ;.v.B.h.=.=.h.h.Q -.h.:.E ;.4 K.Y.A.3                           ",
"                              S J.X.C $ 5.s.;.T u.s.7.T p.s.s.h.E 5.h.B.h.-.=.h.h.Q -.b.5.E ;.; A.F.P >                           ",
"                              1 D e 2 % 5.h.-.Q 6.( ) n w.s.s.h.E :.b.B.h.-.Q h.h.Q -.h.:.E :.% A C 0 @                           ",
"                              J W.L.| = 5.v.-.Q a.p.i.U w.s.s.s.E ;.v.B.a.-.Q h.5.E ;.h.;.E :.; A.K.F.e                           ",
"                              L W.K.P % 9.N.-.Q h.s.a.b w.s.s.s.Y :.v.M.h.-.=.s.M M -.h.5.Q :.; A.I.Z.3                           ",
"                              D U.+.C % w.B.-.Q s.s.a.U e.a.s.s.E :.v.B.h.-.=.s.M l -.h.:.E :.; A.K.' ,                           ",
"                              e o.D 6 $ 9.B.-.Q h.e.r.N e.s.s.s.E :.b.n.b.-.=.s.M l -.h.5.Q :.= [ ' C #                           ",
"                              1 D 1 e % 9.M.;.Q s.M 1.U e.b.s.s.E :.s.s.a.-.=.s.M l ;.h.5.Q ;.= L P J ,                           ",
"                              S } X.+.; 9.B.-.Q a.N &.U w.w.p.s.E 5.s.s.s.-.Q s.M l -.h.>.Q ;.5 L.Y.I.C                           ",
"                              q ' Z.P = w.N.-.Q r.N &.N 9.N 2.s.E :.h.s.h.-.Q s.U M -.h.:.E ;.= F.U.F.0                           ",
"                              C F.X.r = 9.n.-.Q s.N &.U w.M ,.s.E :.h.s.s.-.=.s.=.Y -.b.5.E i.8 A.G.' >                           ",
"                              1 H q , % 5.h.-.Q s.M &.N w.N 0.s.E 5.s.s.s.-.=.s.s.Q -.k.z.l.o.q A C 9 O                           ",
"                              D L.S.} = 5.h.-.Q s.M &.N e.e.s.h.R 5.h.s.s.-.=.h.s.=.W  .| } [ q S.G.A.q                           ",
"                              L R.U.+.; 5.b.;.Q s.M &.U e.s.s.s.E :.s.a.s.-.=.h.s.Q W ] P ' / q F.+.| 9                           ",
"                              D I.I.+.; 5.h.-.Q s.N &.N w.p.s.s.E 5.s.a.s.-.=.s.s.Q ! ( T G J q X.P X.9                           ",
"                              S L.H.P = 5.b.-.Q s.M &.U w.a.s.s.E :.h.n.h.=.=.s.b.Q ;.s.:.E _ - D P J ,                           ",
"                              S D.P r = 5.v.;.Q b.N 1.N w.s.s.s.E :.b.B.s.-.=.s.s.Q -.s.5.E :.- o.| D >                           ",
"                              1 D r 2 = Q %.*.Q s.e.e.U e.s.s.s.E ;.b.B.b.-.=.s.s.Q ;.b.5.E :.% A k q O                           ",
"                              L Y.I.o.; Y x *.=.s.s.a.N w.h.a.g.E :.b.M.b.=.=.s.s.Q -.9.%.E :.; H.L.F.r                           ",
"                              D U.J.| ; E %.*.Q s.s.i.U w.a.g.g.E :.b.B.h.-.=.h.s.Q ;.E l E :.; S.L.| 1                           ",
"                              S I.+.Z $ 5.s.-.Q h.s.a.N w.g.a.h.E :.b.M.s.-.=.h.v.Q ;.E M E 5.; A.A.L >                           ",
"                              S H.] C $ 5.b.-.=.s.s.r.U w.a.g.h.E :.h.n.h.-.=.s.s.=.-.r.:.E :.; A.o.H ,                           ",
"                              3 H 0 1 $ U s.-.Q h.s.s.N w.h.h.h.E 5.h.a.g.=.Q h.s.Q -.v.;.E *.$ A C 9 O                           ",
"                              S D.O.J $ g ;.=.Q h.s.s.N w.h.w.-.b E w.h.h.-.=.h.s.=.;.w.j M c ; o.A.+.3                           ",
"                              J K.{ C $ p s U E r.w.w.N 5.9.j p i i j 9.r.Q Q e.t.Y E c y f s - A.L.X.,                           ",
"                              9 D q 1 $ * * * : y y y y y : * * * * * : : u u : y y y * * * ; + L J e O                           ",
"                                                                                                                                  "
};
