/* XPM */
static char *_530132de98ea26__1__removebg_preview__1_1675005953[] = {
/* columns rows colors chars-per-pixel */
"65 65 247 2 ",
"   c #2E1C1A",
".  c #381C18",
"X  c #25100F",
"o  c #35241D",
"O  c #3B241D",
"+  c #35281F",
"@  c #292019",
"#  c #311E22",
"$  c #2B2725",
"%  c #3A2622",
"&  c #372822",
"*  c #3D2A23",
"=  c #322D2B",
"-  c #3D2D2A",
";  c #362524",
":  c #39322E",
">  c #353133",
",  c #3D3434",
"<  c #3B3A39",
"1  c #372B31",
"2  c #1E1510",
"3  c #4B180D",
"4  c #4D1D14",
"5  c #491D17",
"6  c #511D10",
"7  c #48271E",
"8  c #56251A",
"9  c #59291D",
"0  c #602C1F",
"q  c #422B24",
"w  c #432E29",
"e  c #452822",
"r  c #5A2A23",
"t  c #5D2B2A",
"y  c #562825",
"u  c #45322C",
"i  c #59352C",
"p  c #423A34",
"a  c #433C3B",
"s  c #483837",
"d  c #533D3B",
"f  c #553735",
"g  c #492F32",
"h  c #652C28",
"j  c #65312D",
"k  c #643231",
"l  c #6E3332",
"z  c #633F34",
"x  c #6D3B3B",
"c  c #693B34",
"v  c #753B3A",
"b  c #763838",
"n  c #48443C",
"m  c #56423C",
"M  c #68473C",
"N  c #744A36",
"B  c #754C3B",
"V  c #7A4E3D",
"C  c #72453C",
"Z  c #7C533D",
"A  c #6E513F",
"S  c #473C42",
"D  c #4B4443",
"F  c #4D4945",
"G  c #4E4B4A",
"H  c #474343",
"J  c #524A4A",
"K  c #5D4C4C",
"L  c #564545",
"P  c #564B51",
"I  c #5C5453",
"U  c #5D5A57",
"Y  c #5E5B5B",
"T  c #545253",
"R  c #5E514B",
"E  c #634E4B",
"W  c #6A4843",
"Q  c #744542",
"!  c #734D42",
"~  c #7A4E43",
"^  c #7B4948",
"/  c #6A524A",
"(  c #755244",
")  c #7D5344",
"_  c #75554B",
"`  c #7C554A",
"'  c #755A4E",
"]  c #7C5A4D",
"[  c #7F5944",
"{  c #6C5352",
"}  c #635C5B",
"|  c #685958",
" . c #7B5C52",
".. c #755954",
"X. c #684D52",
"o. c #6B625C",
"O. c #796257",
"+. c #5F5D60",
"@. c #6E5F61",
"#. c #656162",
"$. c #6B6463",
"%. c #6D6A6B",
"&. c #6E6967",
"*. c #726A65",
"=. c #7C6A65",
"-. c #746C6B",
";. c #7C6C6B",
":. c #7A6566",
">. c #7A716A",
",. c #7A6E71",
"<. c #7C7473",
"1. c #787677",
"2. c #6F6E73",
"3. c #9D0D05",
"4. c #9F0C08",
"5. c #9A0804",
"6. c #8F120E",
"7. c #9F1009",
"8. c #94120C",
"9. c #921612",
"0. c #9A1419",
"q. c #9A1C1B",
"w. c #971817",
"e. c #940E0E",
"r. c #A60500",
"t. c #AD0601",
"y. c #A40B05",
"u. c #AD0802",
"i. c #A20D09",
"p. c #AC0B0A",
"a. c #AA060A",
"s. c #B30601",
"d. c #B90502",
"f. c #B30902",
"g. c #B90C05",
"h. c #B20B09",
"j. c #B90C09",
"k. c #A3120B",
"l. c #AA110B",
"z. c #B4110A",
"x. c #A21312",
"c. c #A41719",
"v. c #AB0E12",
"b. c #9E231E",
"n. c #8C211B",
"m. c #A4221B",
"M. c #981B20",
"N. c #952D2A",
"B. c #992926",
"V. c #99312E",
"C. c #9D2A33",
"Z. c #89393A",
"A. c #9C3432",
"S. c #953C3B",
"D. c #9D3A38",
"F. c #80312D",
"G. c #A12621",
"H. c #A42924",
"J. c #A82425",
"K. c #A53A39",
"L. c #A72A35",
"P. c #93453E",
"I. c #9A443C",
"U. c #874C3E",
"Y. c #A1403A",
"T. c #943F42",
"R. c #A63D44",
"E. c #844545",
"W. c #8C4642",
"Q. c #834B45",
"!. c #8B4C4B",
"~. c #8A4948",
"^. c #934641",
"/. c #9D4244",
"(. c #974A44",
"). c #825545",
"_. c #845A44",
"`. c #83554A",
"'. c #8C534C",
"]. c #845A4B",
"[. c #895C4D",
"{. c #845D52",
"}. c #8A5E52",
"|. c #895D59",
" X c #845B57",
".X c #935955",
"XX c #90504E",
"oX c #AA4D53",
"OX c #A94847",
"+X c #8C624E",
"@X c #85614F",
"#X c #856154",
"$X c #8C6254",
"%X c #86635A",
"&X c #8B655A",
"*X c #8E695D",
"=X c #926555",
"-X c #946B56",
";X c #9B6D57",
":X c #926559",
">X c #956A5C",
",X c #9B6D5D",
"<X c #986759",
"1X c #9B715D",
"2X c #95705A",
"3X c #A06D5D",
"4X c #A1715F",
"5X c #A0785F",
"6X c #885E60",
"7X c #8D6B61",
"8X c #856966",
"9X c #956D62",
"0X c #9C6E62",
"qX c #9B6A6B",
"wX c #86726B",
"eX c #957262",
"rX c #9C7163",
"tX c #9C7369",
"yX c #9C7A6B",
"uX c #967569",
"iX c #847C7C",
"pX c #867877",
"aX c #927C79",
"sX c #A06F61",
"dX c #A17365",
"fX c #A5756A",
"gX c #A47B6A",
"hX c #A77869",
"jX c #AB7A76",
"kX c #94817E",
"lX c #937E80",
"zX c #8B8583",
"xX c #888686",
"cX c #968988",
"vX c #98928E",
"bX c #999595",
"nX c #9B8F93",
"mX c #A58B8C",
"MX c #A38585",
"NX c #A7928E",
"BX c #A99798",
"VX c #B19997",
"CX c #A1A09E",
"ZX c #B9A099",
"AX c #A9A4A4",
"SX c #BEA4A3",
"DX c #C3ADAF",
/* pixels */
"s.s.t.t.u.f.u.u.u.u.f.u.u.f.u.s.u.t.s.s.s.u.h.s.s.d.a.t.z.u.u.d.s.g.s.s.f.s.g.t.u.u.s.d.d.g.a.u.f.f.f.f.d.d.d.j.s.a.t.s.d.s.t.t.t.",
"s.s.t.f.s.u.f.u.t.t.t.u.t.t.t.t.u.u.t.s.t.f.a.u.a.d.u.u.y.r.r.p.u.u.y.p.h.p.t.f.t.f.f.d.d.s.p.t.f.u.f.f.d.d.d.s.s.s.s.s.s.s.t.t.t.",
"s.s.t.t.t.f.f.t.u.t.u.t.t.u.s.u.u.u.t.t.t.t.t.f.t.h.a.p.v.c.0.0.w.q.q.0.0.v.p.p.p.t.d.d.d.d.t.h.s.s.s.s.s.s.s.s.s.t.s.t.s.a.t.t.f.",
"s.t.t.s.f.u.u.u.t.u.s.u.s.s.t.t.r.a.u.t.u.t.f.u.t.4.x.L.L.C.OXP.Z.Z.T.T.oXD.C.J.x.i.t.s.d.t.d.a.f.s.d.d.s.s.s.a.s.s.s.s.s.s.s.s.s.",
"t.t.t.t.f.u.u.f.s.u.t.u.t.s.t.u.r.y.f.f.f.u.f.r.0.w./..Xx f yXaX{ K mXMXlXW 5 !.T.q.x.a.f.f.s.s.s.s.d.s.s.t.a.s.s.s.s.t.a.u.s.s.s.",
"t.t.t.u.t.u.u.t.u.t.u.t.t.t.t.u.r.r.f.a.t.y.7.9.A.W.jXVXpX; n F < $ J H P g S lX^ Z.A.B.7.a.f.d.d.d.s.d.s.t.t.t.h.a.s.s.f.s.s.d.s.",
"u.t.t.t.u.u.t.f.t.u.t.u.s.t.s.t.t.t.t.r.3.q.I..XQ O.mX=.F @ . .   o % O e . W 8XX.f f .XS.9.h.d.d.d.s.s.s.s.t.s.h.s.s.a.a.s.s.s.s.",
"t.t.t.t.t.f.u.t.t.t.t.t.t.t.t.t.t.s.r.i.q./.jXZX=.& s % o d  X|.! _  X X_ f O ; 1 1 iX=.c I.e.h.s.s.s.s.s.s.s.s.a.s.a.t.s.s.s.s.s.",
"t.u.t.u.t.u.u.t.t.t.t.t.t.t.t.t.t.r.a.0.S.^ MX;.m X   w _ 9XfX3X).$XdX1X1X] M m ; 1 2.$.L r D.0.a.s.t.s.d.d.d.d.d.s.s.t.t.t.s.s.s.",
"u.u.t.r.t.t.u.t.t.t.t.u.t.t.t.u.r.y.0.T.qXd D - q m ' M 7X0X3X3X~ .XdX3X3X[.` %X{ s , = ; f qXoXM.5.h.t.s.t.s.s.s.s.t.t.t.t.s.s.s.",
"t.u.t.t.u.t.s.t.t.r.t.u.t.r.t.r.p.6.^.6XzXG 2 m ' eXeX/ *X}.=X3X`..XjXhX3X).@XrXyX( M f w :.iX|.S.w.5.t.s.d.t.s.d.s.s.t.r.u.s.d.s.",
"t.t.t.t.t.f.u.t.u.t.t.t.t.t.u.y.e.OXqX:.T $ a _ uXeX>X~ %XB -X3X~ .XfXhX,X_._.5X2XZ @X%XL d , d h D.x.a.t.s.s.s.d.s.s.t.u.r.t.d.s.",
"u.s.t.t.t.s.t.t.t.u.t.t.r.u.u.3.n.W.MXnXP ; M ].2X2X2X) }.~ -X;X) #XrXyX2X@X@XhX1XU.].fX .  < ,.&XW.B.i.a.j.s.s.s.d.d.t.u.u.f.s.s.",
"t.u.t.t.t.s.t.t.r.f.r.u.r.r.r.8.I.B L | S g W ).1X5X<XV .XQ.+X2X_.$XyXuX2X_._.4X;X_.[.9X6Xg G kX8Xt D.0.v.s.t.f.s.s.s.s.u.u.s.s.s.",
"s.t.t.t.t.u.t.t.t.t.r.u.u.r.u.m.'.VX;.g - W  X'.sXfX>X).:X`.+X1XZ [.tXtXrX`.'.0X1X) $X9X|.f + p > g T.0.a.a.f.t.t.s.s.h.d.s.d.s.s.",
"t.s.t.t.t.s.t.t.t.f.u.r.f.r.k.Y.tXbX-., f 8X'.`.hXdX0X~ =X<X1X>X[ }.rX0X,X}.'.rXuX_.].uX XW u + U lXb R.v.s.s.t.t.t.s.s.h.s.s.s.s.",
"t.r.t.t.s.t.t.t.s.r.t.t.t.5.B.S.O.&.p   ' tX}.`.dXhX>X^ :X0XdX,X).[.,XrX,X[.].0XtX) ].rX#X` / - } } f b c.f.j.s.s.s.s.s.s.s.s.s.f.",
"t.t.t.s.t.s.t.r.r.s.t.r.t.l.N.l :.+.< * %X>X`.` dXhX>X~ =X1XsX,X).+X>X-X+X).].0XtX` }.=X[ ' ( * R Y J k B.h.r.g.s.s.s.s.d.s.d.s.f.",
"t.t.t.t.s.s.t.t.s.r.t.t.t.5.V..XDXbXI * {.tX}.].3XdX9X~ $X1XrX0X) &X>X+X) ).@XdX0X).`.).B [ #X7 zXAXpXx G.t.h.d.s.s.s.s.s.s.s.s.f.",
"t.r.t.t.t.t.t.t.r.t.s.s.t.3.N.E.cX,.a o %X0X[.` ,X0X9X^ =XrXrX,X~ :X0X].Z _._.5XdXQ.[.Z N )  .7 ,.lXT k J.r.j.t.s.t.s.s.s.s.s.s.s.",
"t.r.t.t.s.s.t.t.t.t.s.r.f.k.N.l E G = o {.rX}.].,XsX0X~ -XdXdX0X~ $XrX].Z _._.1X0X`.[.).N A ' + F I H t b.f.s.s.s.f.s.s.d.s.f.s.s.",
"t.t.t.t.s.t.t.r.a.t.t.t.u.3.N.~.cXxXI - #XrX}.) ;X,X>X~ $XdXrX,X`.#X1X[.Z _.U.1X,X).[ Z A O.O.u xXbX<.x G.p.t.f.s.f.s.s.s.d.d.s.f.",
"t.t.t.t.s.t.t.t.t.t.t.t.t.k.N.b wX#., o #X,X] `.,XdX>X~ -XgXrX,XU.+X2X@XZ _.U.uX1X] ] O.O.>.,.H 2.-.J t H.t.f.f.s.s.s.f.s.d.f.f.f.",
"t.r.t.t.s.t.t.t.t.t.t.t.u.k.N.b ;.%.n & #XrX}.) 3X,X>X~ =XgXdX,XZ +X;X_.Z @X[ 1XeX[ _ wX>.&.+.< T F I k b.f.s.s.s.f.f.f.d.f.s.f.f.",
"t.t.s.s.s.s.t.t.t.t.t.t.f.3.V.XXBXbXI ; %XrX].].;X1X<X~ :XgXrX,X@X@X1X@XZ [ _.kX9X .' ' o.o.+.< #.&.,.x H.u.s.s.s.f.s.f.s.s.s.s.t.",
"t.t.t.t.s.s.t.t.r.a.t.t.u.7.V.C lX1.n & ] +X) ) ;XdX>X) -XdXrX,XZ @X1X_.Z U.U.;XqX] ( / / R T > H U #.t b.f.s.s.s.s.t.s.s.s.s.s.s.",
"t.t.t.s.s.s.t.t.r.t.s.t.u.3.N.l | T > * {.) B ].;XdX>X~ :XgXdX0X) %XtX].)._.@X1X0X` [.7XO./ / - J I J t H.h.t.s.u.u.u.f.s.s.f.t.f.",
"t.t.t.s.s.s.t.t.s.t.t.r.t.7.A.!.ZXbXU * ].) B [ ;X,X>X~ =XdXsX0X`.|.0X[._._.[.1X0X`.}.0X$X` ..w vXAXiXv G.p.s.s.s.f.s.s.s.s.s.f.s.",
"t.s.s.s.s.s.t.r.s.t.t.t.t.4.V.E.BXxXF o ].) N ) ;X3X:X~ $XrXrX0X`.{.tX$X[._.[.dXdXQ.}.,X}.` ] 7 ,.vX&.k b.h.f.s.f.f.f.f.f.s.f.f.s.",
"t.t.t.t.s.t.t.t.r.t.t.s.t.4.N.h L H = o #X_.) ].;X1X-X~ -XrXsX0X` }.rX1X>X].`.qX0X`.}.sX}.` ] O J } S t G.h.t.f.f.f.u.t.f.f.f.s.f.",
"s.t.s.s.s.a.t.t.s.t.t.r.r.k.A.b P 1.$.u ] 1X].Z ;X4X-X~ $X1XrX,X`.[.1X4X>X].].0XtX) ].1X$X(  .q lXAXcXQ G.h.s.f.s.u.f.f.s.f.s.u.s.",
"s.t.t.s.s.s.t.r.a.t.t.s.t.3.N.l :.bX,.- @XtX_.].;X3X<X) $XrX1XsX).[.1X1X2X[.`.0XrX`.@XtX*X`  .q zXAXnX^ G.h.s.s.f.f.f.f.s.f.s.f.f.",
"s.s.s.t.s.s.t.u.s.t.s.t.u.k.V.v aXiXH o ].dX].].dX,X<X~ =XtXsX,X) [.,XrX,X'.] rX0X) }.fX:X` ] % -.xX} k G.u.g.f.f.f.s.f.f.f.s.f.f.",
"s.s.s.s.s.s.u.t.t.s.s.t.t.k.B.l E G > & #XtX}.) ,X,X>X~ $X0X0X,X) }.0XdX0X'.`.eX0X].}.fX:X) ` * p < F r B.h.r.s.f.f.s.f.s.s.f.s.f.",
"s.s.s.s.s.s.t.s.t.t.s.s.t.3.V.Q.BXvXo.: ] 2X#X` ,XrX9X) &XtXdX,X) }.0XhX0X[.`.tX0X)..XfX:X`  .e *.Y ,.x G.z.s.s.f.f.f.f.d.f.s.s.s.",
"s.s.t.s.s.s.t.t.s.t.s.s.t.3.V.XXNXxXU & #XrX%X] 9X>X>X( &X0XrX,X).+XrXfX0X{.`.0X,X).}.dX:X`. .e <.%.$.k b.a.j.s.s.f.s.f.s.f.d.f.f.",
"s.s.s.s.s.t.t.t.t.s.s.t.t.k.V.l | F = $ #XgXyX7X&X#X .C #XeX0X,X) [.dXfX0X X`.0XrX_.[.dX&X` ] O $.U p y b.u.s.s.f.s.s.f.s.s.f.s.s.",
"s.a.s.s.d.a.t.t.s.t.s.t.t.k.N.b / F : o O.tX7XeXyX9X#X( *XeX,XrX).}.dXjXdX'.`.0XrX).[.,X$X[  .O a T H k H.z.s.s.d.f.f.f.d.f.s.f.s.",
"s.s.t.s.s.s.t.t.t.t.s.s.t.3.N.E.NXvXI & {.eX%XuXjXtX7X' 7XtX1X0X) $X0XhXtX'.` rXrX) ].0X$X] O.O cXBX1.x B.u.t.f.f.f.s.f.s.f.g.s.f.",
"s.s.t.t.s.s.t.t.s.t.d.a.t.i.A.E.cX>., * {.tX.._ 7X7X7X] >XtX,X;X).[.dXhX0X[.).rX1X).[.0X}.` ] * pXxXU k J.f.h.d.s.f.f.f.s.d.s.s.f.",
"s.t.t.t.s.s.t.t.s.s.s.s.t.4.N.l W n ; ; #X0X ._ {. X{.Q *X9X,XdX).[.dXgXtX].].,X,X].].,X$X] ' o H H , y G.t.f.s.s.f.f.f.d.d.f.f.s.",
"s.s.s.t.s.s.t.t.r.s.s.s.s.i.A.~.VXvX&.q ].0X|.] 0X>X&X~ *XtXsX4X) [.dXfX0X[.).,X$XZ [.,X+X`  .O 1.vXlXQ H.h.s.s.s.s.f.d.f.f.s.s.s.",
"a.s.t.t.s.a.t.r.t.h.s.t.t.3.N.XXSXvX} * *XrX|.` 0XtX>X~ &XrX;X,X) }.dXhX0X'.].2X) N [.0X$X`  .* iXCXlXx G.u.t.f.s.f.s.s.s.f.s.s.s.",
"s.s.t.t.s.t.u.u.t.t.t.t.s.i.V.~.mXiXa % $XhX|.` 0X0X>X) $XtX,X3X).}.dXfX0X[._.>XN N [.,X#X` ] O iXvX} k H.u.s.s.s.f.s.s.s.d.s.s.s.",
"t.s.t.t.s.s.u.t.s.r.s.s.s.i.A.b :.G = o #XhX@X).1X;X=X) $XtX,X,X) $XdXhX0X[.].2XZ N [.rX[.`  .O U #.a h G.h.f.s.s.s.s.s.d.s.s.s.s.",
"t.t.u.f.s.a.u.r.t.t.d.s.t.i.N.l K > a O *XhX).].;XU.].B :X,XdX,X` [.0XtX,X].].-XV N [.,X}.]  .O I #.I k 9.u.s.g.f.f.s.s.s.s.s.d.s.",
"s.t.u.t.s.u.u.u.r.s.s.s.s.i.A.v | 2.%.: #XhX].).;XV _.) *X$XrX1X) {.rXrX,X].).>XZ N [.,X}.]  .* nXAXnX^ 9.p.s.f.d.f.s.s.s.s.s.g.s.",
"u.t.t.t.s.f.r.u.t.h.t.t.f.i.N.v @.xXU - &XgX[.).,XV +XZ @X) -X>X_.}.0XrX,X].].>XV N [.rX$X_  .w lXAXcXx 6.f.f.d.f.f.s.s.d.f.d.f.s.",
"t.t.t.t.s.t.t.t.u.t.s.s.t.k.V.b pX%., ; &XdX@X).,XV ].Z $XB <X1X).+X0X0X0X[.[.,X[.B ].uX:.O.=.p 2.xX} t 8.h.h.s.s.s.s.s.d.s.s.s.f.",
"t.u.u.s.t.s.t.t.u.t.t.t.a.k.B.b L H $ ; %X,X] ].,X) [.Z $X) >X,X`.[.0X0X>X].'.>X>X].O.uXwXwX;.< F F , y 8.a.s.d.s.s.f.s.d.s.d.s.f.",
"u.r.u.t.s.s.u.u.a.s.s.t.u.i.N.E.mXxX#.- #XrX@X) ,X) [.V =X:X4X,X).[.eXtX9X].].eX9X] _ O.8X*.} , 1.xXpXx 9.f.f.s.s.s.s.s.d.s.s.s.s.",
"u.t.u.t.s.f.r.u.s.a.p.s.f.i.N..XVXCX<.- {.rX@X_.<X) ].V =XtX4X,X) $XeXtX9X`.].eXtX] / ' ..| R a lXlX,.x 8.a.s.d.s.s.s.s.s.d.s.s.f.",
"u.t.u.t.t.t.r.u.s.a.t.t.h.k.N.!.NXCX1.- #X1X]._.<X) [.Z $XdX;X3X) }.tXtX9X].].9XrX` ]  .{ E K , +.#.} v q.p.s.s.s.s.s.s.d.s.s.s.s.",
"t.u.t.u.a.s.u.u.t.t.t.t.f.7.N.E.nXvXo.& #XtX].) <X) [.V $XrX3X3X).}.tXdXtX'.'.tXrX) |.9X ...{ - P Y U k 9.a.s.s.s.f.s.s.d.s.s.s.f.",
"t.r.u.u.s.s.r.u.t.a.h.t.a.4.A.E.aXY , * #X>X].].<X`.+XV :XrX4X3XQ.}.dXfX0X[.'.sX0X).}.tX%X' ..& #.#.F t w.h.f.s.s.f.s.s.d.s.s.s.f.",
"a.u.u.f.f.a.u.u.t.t.t.s.a.x.N.l / H = o ( +X[.) ,X=X<XV :X0XsX,X).}.dXfXtX'.].,X0X).[.>X#X]  .O F T g t w.h.t.f.s.s.s.s.s.s.d.s.f.",
"r.t.t.t.t.t.t.t.t.a.s.t.a.i.D.!.BXbX*.* ! Z `.].rX,X>X( :XtX3X,X).].rXgXrX].].>X1X_.) $X` '  .w zXbXlXQ q.u.s.s.s.f.s.s.s.s.s.s.f.",
"u.u.r.t.s.f.r.u.t.t.a.t.s.i.C.E.BXbX%.- ( [.].) ,XrX1XV }.0XdX;X).[.rXgX2X].[.1X1X[ @X) A ` ' O iXbX%.x G.h.s.f.s.s.s.s.s.d.s.s.f.",
"f.u.u.f.s.s.u.u.a.t.s.s.t.4.N.!.BXpXF % ] ,X[.] 0X,X>XV >X0XdX,X).[.1XgXrX].[ 2X,XU.].) ) ` ` * pXzXI h B.s.s.s.s.s.s.s.d.s.f.s.f.",
"f.u.u.u.s.s.u.u.t.s.h.t.t.k.A.E.lXY 1 * #XtX[ [ 0X0X>X~ 9X9X0X,X).+XrXdXrX].).tXdX[._.<X@X`  .7 <.%.F k H.h.f.s.f.f.f.f.s.s.g.s.u.",
"u.t.u.s.s.s.f.u.f.s.s.t.f.l.N.l E S $ # ! >X}.) 0X0X>X( &X9XtXtX).$XrXrX<X].`.,X,X).).tX].` ` O D H > r b.t.t.g.d.f.f.f.s.s.d.f.f.",
"u.f.f.u.s.s.f.u.s.a.s.f.f.k.N.E.lX%.S % i `.] ` qXtX>X( 7XtX:X).C B $XrXtX}.` tXtX_.[.}.z Q z % -.zX-.l H.z.s.f.f.f.s.f.d.f.s.f.f.",
"f.u.f.f.f.s.f.u.t.t.f.s.s.k.A.XXcX%.a . e j N ~ &X$X@XB ].{.M 9 9 7 m ].%X` ( &X&X( V f e i e   <.nX-.k b.z.f.s.f.f.f.f.f.d.f.f.g.",
"f.f.f.f.f.f.f.f.f.s.s.t.f.h.G.F.W f e . 4 3 8 8 9 h r 9 r 9 3 6 4 3 8 8 r 9 8 r 9 9 8 4 5 8 5 3 { { g h J.f.g.d.f.d.f.f.d.s.g.f.f.",
"f.f.f.f.f.g.g.f.s.f.f.f.f.p.m.K.I.~.~.P.P.P.P.P.P.P.P.(.P.(.P.P.P.P.P.P.P.(.(.P.P.(.P.P.(.P.P.W.XX^.W.Y.c.g.g.f.f.g.d.g.g.g.g.g.f."
};
