/* XPM */
static char *_a6bfc987873481dc629e39bf5e09e93eO6xW5UOv5ECUVU5[] = {
/* columns rows colors chars-per-pixel */
"65 65 80 1 ",
"  c #AB0600",
". c #AA0700",
"X c #AD0400",
"o c #AC0500",
"O c #AE0500",
"+ c #AD0600",
"@ c #AC0701",
"# c #AF0600",
"$ c #AF0601",
"% c #AE0701",
"& c #AD0502",
"* c #AE0603",
"= c #AF0603",
"- c #AF0802",
"; c #B00400",
": c #B10400",
"> c #B00500",
", c #B10501",
"< c #B30400",
"1 c #B20500",
"2 c #B30401",
"3 c #B20501",
"4 c #B10600",
"5 c #B00700",
"6 c #B30600",
"7 c #B20700",
"8 c #B20403",
"9 c #B00702",
"0 c #B20602",
"q c #B30602",
"w c #B30703",
"e c #B40500",
"r c #B40700",
"t c #B50601",
"y c #B40701",
"u c #B40703",
"i c #B60702",
"p c #B30504",
"a c #B00704",
"s c #B20604",
"d c #B40605",
"f c #B10801",
"g c #B30800",
"h c #B30801",
"j c #B20A01",
"k c #B10803",
"l c #B00903",
"z c #B20902",
"x c #B30A03",
"c c #B40900",
"v c #B50900",
"b c #B50801",
"n c #B40901",
"m c #B60800",
"M c #B70900",
"N c #B60801",
"B c #B50A00",
"V c #B60A00",
"C c #B70B01",
"Z c #B50802",
"A c #B40902",
"S c #B60902",
"D c #B70902",
"F c #B60903",
"G c #B50A02",
"H c #B50A03",
"J c #B70A03",
"K c #B60B03",
"L c #B20904",
"P c #B40B04",
"I c #B50D04",
"U c #B50C05",
"Y c #B70C04",
"T c #B90800",
"R c #BA0901",
"E c #B80A01",
"W c #B80A03",
"Q c #BB0A02",
"! c #B80C02",
"~ c #B90D03",
/* pixels */
"-%%-lll---------%%;%;=--z-%;d;usu;<uuuuuuuuuuuuuuuuTuuTu;;;A;;Z;A",
"-%%%-ll-%%%%%%%%%%%%----%sll;u;Zuuuuuuuu;uuuuuuuuuuuuuuu;u;;Zs;s;",
"-%%%-l--%%%%%%%%%%%%---l-s;su;;u;uu;uu;uuuuuu;uuu;u;u;u<Au;uZ;l;z",
"-%%%-l--%%%%%%%%%%%%-%%;%lZ;;uud;;;u;;u;<;;u<uuuuuuuuu;u;;;;sd;uA",
"%%%%%%-%%%%%%%%%.o.-;ll;;;;;u;u;;<;u<u;u;<u;;<;u;uu;<;;uA;;z;;l;;",
"%%o%-%-%%%%%%%%%o..-;;;;s;;u;u;<;;;<<;<;u;;<uuuuu;<;;uu;;d;;Zs;uA",
"%%%%---%%%%%%%%%.oo%l;u;;;u;uu<<<uu;;uuu88pppppp;;<;u;u<d;s;;dd;;",
"%%o%%--%o%o%o%%%.oo%l;;;;u;u;<<<<;;<uu;uppppppd<uuuuu<u;Z;;;Z;A;z",
"%o%o%%%o%o%o%o%oXo%XX%;;;;;;;uu;;;u;;;;;ZZd;uuuu<;u;;uu;;;;;Z;;;z",
"%%o%%%%%o%o%o%o%X%X%XXu;;u;u;<;u;;;;u;Zsd;uA;u;uuu;<<<;us;;u;slZ;",
"%%%o%%%o%o%o%o%oX%%X;;;lz;;;;u<;;;u;s;;;u;u;u<uu;<u;;u<;;;;;;;d;;",
"%oo%%%%%o%o%o%o%%%XX;%;;=;;u;;;u;d;;;;zsuuuuu;u;u;<;u;;u;zs;ZA;dz",
"%o%o%%%o%o%o%o%ooo%%%zu;-;;s;uu;;;;;lu;Zu;;uuu<uuuu<u;u;;;;;sZs;;",
"%%o%%%%%o%o%o%o%-o%%%;;l%;;;;;;u;;;s;;;suuu<u;uuu;;uuuuu;u;ds;ulu",
"%o%o%%%o%o%o%o%o-o%;;%;;l;u;;uu;;;;;;;;Zuuuuu;u;<uuuu;dZu;;lA;;d;",
"%%o%%%%%o%o%o%o%-=;%=;;s;Z;;;u;u;u;Zu;d;;u;u<uuuuu;uuA;;sZsZ;d;Au",
"oo%o%X%Xoooooo%o%oX%;;;;;lu;u;u;;uu;;<<;;<<;<;;<;;<uu;uu<;;<uuuuA",
"ooo%%X%;ooooo%o%o%X%;%s;;;;;;;;;<<;uu;uuu;uu;uu;;;<;uuuu;uu;u;u;A",
"oo%o;%XXoooo%o%o%o%X;l;;;s;ud;As;u<;;uu;;<u;uuuuu<uuu;;uuu;<uuu<;",
"ooo%;X%;oX%%o%o%o%%Xz;;zZ;;;;;;;u;;u<;;<u;;<;uu;;;u;<uuu;<uu;u;uz",
"oo%o%%X%%o%o%o%%%%XX%;;s;A;;s;;;;;<;;u;;;<u;u;uuuu;uu<uu;uu;u<uuA",
"oooX;%XXo%o%o%%%%%;%%%;;;;;s;Z;u<u;uu;<uu;;uuuu<u<uu;uu;u<uuuuuu;",
"oo%%;;;%%o%o%%%%Xo%X%;;s;d;;;;;;;<u;;<u;;;uuu;;uuu;uu;uuuuuuuuuuu",
"oo%%%X%Xo%o%%%%%o%%%;z;;;;u;ul;du;u<u<;<uuu<<uuuuuuuuuu<u;;uuuuuA",
"XXX%%;-%%%o%%%%%%%%%;-;;;;;;l;u;;;;d;u;A;<u;duuu<<u<<t<<;u;Az;Azz",
"X%%;;%%;%%%o%%%%%%;%%;;s;;ulZ;;;;;;;;;s;u;;<uu;utt<<T<ttA;A;;AA;;",
"X%X;%;;;o%o%%%%%%%%;-%;d;;;;;;;;;u;u;;;u;u<;;u;<<t<u<<u<;;AzA;;AA",
"%%;%;%%X%o%o%%%%%%;%;z;;;;u;d;u;;;;;As;;<;uuuuuut<T<uT<<Az;AzA;z;",
"XX%;%;%Xo%o%%%%%%%=%;-z;;;;As;lu;;;;;;;Zu;<;uu<u<<<Tuu<<zuzuuAAAz",
"%;-;%%;X%o%o%%%%%%;%;%;;;;;;Z;;;;;d;;s;s<;;uu;uutTu<<TT<uzuzA;uzz",
";;-%;%XXo%o%%%%%%%%;%-;s;;;ds;Z;;;;ul;;Z;u;u;uu;<tutu<uuzuzuzuzu;",
";%%;%%%X%o%o%%%%%%;%;=;;;;;;;;;s;A;;u;;su;<;<ud<Tu<TT<uuuzuzuzuzu",
";A;d;;Z;o%XX%%.o--%=%z;;;sA;ul;s;;;lu;u;;u<;uu;uuu<uuuu;uuuuuuuuz",
";;;;;s;;o%;%;%-o%-;;%;As;;;;;;;;;s;;;;;;;<;u<uuuuuuuuuuuuuuuuuuuA",
"s;;;luu;.%%;;;%o%%;%%;;;u;d;;;;Z;;;s;;d;u;;uuuuuuuuuuuuuuuuuuuuuA",
"u;u;;;;;%%%;;-%o%%%=;%;s;;;;;u;;u;Z;sA;;<;u;;uuuuuuuuuuuuuuuuuuu;",
";Z;s;;As%X;;;;;%%%%%%;s;Z;;;;;su;A;d;;;;u;uuuuuuuuuuuuuuuuuuuuuuA",
";;;;;d;;%%;;u;z%%%%%;%;;;sulA;;;;;;;;u;Z<;u<uuuuuuuuuuuuuuuuuuuu;",
"u;;l;;;;;%;;u;%%%%;%%%;;;;;;;;l;s;;;;us;;u<uuuuuuuuuuuuuuuuuuuuuz",
";;;u;u;;%;;;;;;%%%%;z;A;d;u;d;;;u;u;;l;;u;uuuuuAuuuuATuAuuuuuuuuu",
";;%;=;--;;;%;%;=%%----o-;z;-%;z;;s;zsldsuuuuuuuuuuuuuuuuuuuuTuuuu",
";d;%-%%%X%%;=;%%%%-=o-o-;;;s;;;;Z;s;sZA;u;u;uuuu<;uuuuu;uuuuAuuuu",
";;;-%%%%%%;%-%;z;=%;;%%%u;u;;u;dA;;u;Zudu;uuuuuuu;uuuu<u;<uuuu;u;",
";Al;;%%%%;%%%;-s%;;%%;%%;;;;l;;;;d;;sZ;;uuuuuuuuuuuuuuuuuu;uu;uuu",
";;=;%;-%o.-%;;;;;l;z;z%%;;u;;;;;Z;;u;ZluuuuuuuAuuuu;u;uuuuuuuu<uu",
"s;-%;%%%o--%l;uu;;;;;;;;<;;uuuu;;ss;sZZsuuuuuuuTuuuuuuuuuu;u;u;uu",
";;%;;%%%oo%%;;;As;;s;;s;;u;u;u;ul;;Asld;uuuuuTuAuu<uu;uuuuu;;uuu;",
";z=;%%%%o%%%zs;dz;;A;d;;u;<;u;udu;d;;ZZsuuuuuAAuuuu;uuuuuuuuuuTuA",
"%%%o%%%o%%%;;-;s%;=%;=%;%;;ld;A;;uu<u;uuuuuuuuuuuuuuuuuu<uu;uu;u;",
"z%%%%%%%%%;%lsZ;;%%;%--=%%%sdl;;<u;uuuuuuuuuuuuuuuuuuuuuu;uuu<uuA",
"%%%%%%%%%%%;zls;X;;%;-%;%%%%Z;;;;u;u<u;uuuuuuuuuuuuuuuuuuuu;u;;uA",
"%%%%%%%%%%%%;;ul%%%;%;;%X;%;;;u;;uuuu;uuuuuuuuuu;uuuuuu;u;<uuu<u;",
"%%%%%%%%--%;l%;d%;%%;;;l;%%;s;;duu<u;uuu<uuuuuuuuuuuuuuuuu<uuu<uA",
"%%%%%%%%%-;%s-Z;%;;llllll;;%;;;l;u;uuu<uu;u;;u;uu<uuu;<uu;uu;uu;;",
"%%%%%%%%%%=-zls;-%zslllZlls-lA;;;uuu;uuuuuu<u<uu;;uuuu;u;uu;u<uuu",
"%%------%%;%;;ulsl;lsllzZLlsd;dZu;u<u<uu;u;uu;u;uuu<uuu;<uuu;uu;u",
"&&&&&&o%=====s=sA;zAAAzz--z%z-;;u<u;uuuu;uuuu;<u<uuu;u;uu;;uuuu<A",
"**=&===%=&===lss;z;zzIz;-=%z%z;u;u<uuuuuuu;uuuuuuu;uuuuuuuu<u;;uA",
"=---==--.%;%z;ssA;;;zzz%--;ls;;;u;uuuuuu;u;uuuuu;uu;u<uuu;uu;uuuA",
"--------%%ls;dl;;z;zzzzz-zzzzA;Auuuuuuuuuuuuuuuuuuuuuuuuuuuuuuuuz",
"---;%;zzz;z;Z;Zd;z;AzzzzzzzzAAu;uuuuuuuTuuuuuuATuuuuuuuuuuuuuuuuz",
"---z-z-;-z;zzuuAz;A;zzlPzzAAATuuuuuuuuuAuuuuTAuuuuTuuTAuAuTAuuuTA",
"zzz;z;zz;z;AuuuuzuzAzzzZAAAAAAuuuuuuuAAuuuuAAuuAuAAuuAAuuAAuuAAuA",
"zzzzzzzA;zA;uuuuuzA;zzIICCAATuAAuuuuTuATTuATuAATATuAAuTAuTuTAuTAA",
"zAAzA!AzAuuATAuAAATAAATIIYYYCITZA!!!AT!TTTT!T!!CATATWWATA!AAT!!!C"
};
