/* XPM */
static char *png_clipart_sprite_animation_2d_computer_graphics_game_character_sprite_game_chibi__1__removebg_preview_removebg_preview__1_1675001347[] = {
/* columns rows colors chars-per-pixel */
"65 65 225 2 ",
"   c #1E1F0F",
".  c #1E1C12",
"X  c #1C1713",
"o  c #26180D",
"O  c #241E15",
"+  c #251D1D",
"@  c #2C1C16",
"#  c #3A1C1D",
"$  c #341A16",
"%  c #37160F",
"&  c #1D231A",
"*  c #292215",
"=  c #23231C",
"-  c #2B221D",
";  c #2A2B1E",
":  c #262415",
">  c #35231D",
",  c #3C231B",
"<  c #342B1E",
"1  c #392415",
"2  c #2C1D22",
"3  c #1F2720",
"4  c #262523",
"5  c #2B2423",
"6  c #262B21",
"7  c #2A2C25",
"8  c #2C2B2B",
"9  c #352522",
"0  c #322C23",
"q  c #352C28",
"w  c #263027",
"e  c #2B3024",
"r  c #2D312A",
"t  c #26312B",
"y  c #38372B",
"u  c #2B2C30",
"i  c #383837",
"p  c #551508",
"a  c #441B14",
"s  c #4A1B18",
"d  c #551F1A",
"f  c #4B0E08",
"g  c #651F13",
"h  c #741C1A",
"j  c #7E1712",
"k  c #6D0D0A",
"l  c #4D211B",
"z  c #442A1A",
"x  c #562519",
"c  c #682719",
"v  c #7C211C",
"b  c #472822",
"n  c #5A2421",
"m  c #5C2A24",
"M  c #512723",
"N  c #4D3A2C",
"B  c #4A3429",
"V  c #483C35",
"C  c #5D3D36",
"Z  c #692723",
"A  c #762B29",
"S  c #63312A",
"D  c #69382B",
"F  c #73322E",
"G  c #7C312B",
"H  c #6A3937",
"J  c #7E3234",
"K  c #4A422C",
"L  c #514A2E",
"P  c #46453A",
"I  c #564936",
"U  c #595139",
"Y  c #604C31",
"T  c #685837",
"R  c #4D4E44",
"E  c #444641",
"W  c #584E47",
"Q  c #4F504A",
"!  c #595349",
"~  c #784D46",
"^  c #635C4C",
"/  c #635948",
"(  c #755C45",
")  c #675C55",
"_  c #634F48",
"`  c #5F615C",
"'  c #6A664B",
"]  c #72684B",
"[  c #6E6850",
"{  c #7A6D57",
"}  c #7B7359",
"|  c #776D62",
" . c #656861",
".. c #9E0501",
"X. c #9C0D04",
"o. c #940D0B",
"O. c #9E0D0A",
"+. c #960B04",
"@. c #88150B",
"#. c #9B1107",
"$. c #95120D",
"%. c #9A120C",
"&. c #971C0B",
"*. c #821711",
"=. c #8C1613",
"-. c #851B15",
";. c #8F1C15",
":. c #931414",
">. c #9C1614",
",. c #931B13",
"<. c #961C1B",
"1. c #981A17",
"2. c #A60400",
"3. c #AE0601",
"4. c #A50A04",
"5. c #AD0902",
"6. c #AC0509",
"7. c #A30C0A",
"8. c #AB0B0A",
"9. c #B30601",
"0. c #B90302",
"q. c #B30902",
"w. c #B90A03",
"e. c #B30409",
"r. c #B60A0A",
"t. c #BA070A",
"y. c #A4130C",
"u. c #AB110C",
"i. c #BA1102",
"p. c #A90E11",
"a. c #A10F12",
"s. c #B80B11",
"d. c #A61616",
"f. c #B41612",
"g. c #862315",
"h. c #9C2F1B",
"j. c #89321F",
"k. c #9D361F",
"l. c #98240D",
"z. c #A82519",
"x. c #8E2222",
"c. c #862C26",
"v. c #992A27",
"b. c #8A382C",
"n. c #883836",
"m. c #9C3C34",
"M. c #9A3425",
"N. c #A43430",
"B. c #B1352F",
"V. c #C00402",
"C. c #89433C",
"Z. c #93423F",
"A. c #87524A",
"S. c #965340",
"D. c #914E4C",
"F. c #B4544E",
"G. c #80644E",
"H. c #9B684E",
"J. c #8A7B5A",
"K. c #987D5F",
"L. c #A3654C",
"P. c #AB6D5A",
"I. c #807461",
"U. c #887A67",
"Y. c #807B71",
"T. c #996460",
"R. c #C85559",
"E. c #C2756F",
"W. c #DE7272",
"Q. c #C67C71",
"!. c #E37A7E",
"~. c #A38259",
"^. c #8A8366",
"/. c #968969",
"(. c #928266",
"). c #818177",
"_. c #8A8778",
"`. c #958B77",
"'. c #9F9B7E",
"]. c #A88573",
"[. c #A79574",
"{. c #AB9879",
"}. c #AC8F6C",
"|. c #BBA97A",
" X c #E1856E",
".X c #E29E77",
"XX c #E2A77F",
"oX c #8E8B82",
"OX c #988F85",
"+X c #AB9988",
"@X c #BA9698",
"#X c #B5A686",
"$X c #A4A192",
"%X c #BFB292",
"&X c #B1AA97",
"*X c #B5B3A7",
"=X c #C7BB98",
"-X c #CAB293",
";X c #FEAE89",
":X c #FFBF97",
">X c #FFB98B",
",X c #D6C596",
"<X c #D8CD8D",
"1X c #E4CD9B",
"2X c #ECCB9E",
"3X c #FFC195",
"4X c #E5D194",
"5X c #FDDE9C",
"6X c #F7D89C",
"7X c #FFE29E",
"8X c #F8E297",
"9X c #DCCBA4",
"0X c #D6C4A7",
"qX c #C4C1BB",
"wX c #ECD4A5",
"eX c #EAD7A8",
"rX c #F1DDA5",
"tX c #FDDDA3",
"yX c #F8D8A9",
"uX c #E7CCB9",
"iX c #FEE2A4",
"pX c #FEE3AB",
"aX c #F5E3A7",
"sX c #FEE5B2",
"dX c #DCD7D1",
/* pixels */
"5.3.3.5.5.q.5.5.5.q.5.9.5.9.5.9.9.0.9.5.3.6.5.e.9.5.9.5.3.9.9.q.9.5.9.9.0.9.9.9.0.0.0.e.9.9.0.0.w.w.q.9.9.9.9.9.9.9.9.3.e.9.3.9.9.",
"9.5.5.9.5.q.q.5.5.5.3.5.5.5.5.3.9.9.3.3.5.6.q.6.q.5.e.5.3.9.9.9.9.5.0.0.0.9.9.5.9.0.0.9.q.q.q.q.q.9.9.q.9.9.9.w.9.9.9.3.9.9.e.3.9.",
"9.5.5.3.5.9.5.9.3.3.3.9.3.3.3.5.3.5.4.5.5.5.e.9.5.9.5.8.3.e.9.0.9.9.0.0.9.5.5.5.9.e.9.9.9.5.9.5.q.9.9.9.9.9.9.9.9.9.9.9.3.9.9.3.9.",
"5.3.3.5.5.9.5.5.5.3.5.3.9.5.3.3.4.5.4.5.5.5.9.9.e.5.5.5.5.3.9.9.3.9.0.0.3.5.5.5.3.9.9.9.9.9.5.5.9.9.9.9.9.9.9.9.9.9.9.9.e.9.9.9.9.",
"3.5.3.5.5.5.9.5.5.3.3.5.5.3.5.3.3.2.2.3.3.9.9.0.9.9.9.3.3.9.9.e.3.3.9.0.9.9.3.3.9.9.0.9.9.9.5.9.q.9.9.9.9.9.9.9.9.9.3.9.9.9.3.9.5.",
"3.3.3.3.3.3.5.5.9.3.5.3.5.3.5.3.2.3.5.3.9.9.0.e.9.9.9.3.9.e.e.9.3.3.3.9.9.e.3.5.0.e.9.0.9.9.9.9.9.9.9.9.3.9.9.9.9.9.9.9.9.9.e.3.q.",
"3.3.3.3.5.5.3.9.3.5.5.3.3.3.3.3.3.6.5.5.3.3.e.3.e.e.3.9.9.e.0.0.3.3.3.9.9.9.5.e.9.9.0.9.9.9.0.0.0.9.9.9.9.9.9.9.e.9.9.3.9.9.9.3.9.",
"3.3.3.3.9.5.3.5.3.3.3.3.3.3.3.3.e.3.6.2.2.6.3.6.3.e.9.9.3.9.e.e.0.0.9.9.3.9.9.3.e.9.0.0.9.9.9.e.9.9.9.9.9.9.9.9.9.9.9.3.9.9.3.9.9.",
"3.3.3.3.5.3.3.3.3.3.3.3.3.3.3.3.9.e.2.4.4.2.2.r.e.9.9.3.5.5.3.9.9.0.0.3.9.9.3.3.9.9.9.9.0.e.9.9.9.9.9.9.3.9.9.9.9.3.9.3.9.9.9.3.9.",
"5.3.3.3.3.3.5.3.3.3.2.3.3.3.3.3.9.3.3.3.4.5.5.3.r.9.3.5.5.2.5.u.2.6.2.e.3.3.9.3.5.3.9.9.0.0.9.9.3.9.3.9.9.9.9.9.9.9.3.9.9.3.9.9.5.",
"3.5.3.3.3.5.3.3.3.3.3.3.3.3.3.3.3.3.0.3.5.5.8.7.8.2.q.5.2.5.4.o.@.@.d.8.3.3.0.9.9.5.9.9.0.e.5.9.9.9.9.9.9.9.9.3.9.3.9.9.3.9.9.9.9.",
"3.3.3.3.5.3.5.3.3.3.3.3.3.2.3.3.3.3.0.9.9.4.+.,.v.v.>.%.%.,.v.c.g g c.=.7.e.e.0.9.5.9.9.9.e.e.9.3.9.9.3.9.9.9.9.9.9.9.3.9.9.9.3.9.",
"5.5.3.3.3.5.3.3.3.2.3.3.3.3.3.3.6.e.0.9.6.o.h Z l s F C.n.F s , , b a v =.7.6.e.9.9.9.9.9.9.e.e.e.9.9.e.e.9.9.9.9.9.3.e.e.9.9.9.9.",
"3.3.3.3.3.5.3.3.3.3.3.3.3.3.3.3.5.3.0.0.6.:.J M 9 5 @ , z , 8 8 r 6 < l c.:.p.e.9.9.9.9.5.9.9.e.0.9.9.9.9.9.9.9.9.9.9.3.9.3.9.9.5.",
"5.3.3.3.5.3.3.3.3.3.3.3.3.3.2.3.5.2.9.9.6.<.n.s 9 - - O * q q u 8 u w 0 l b.:.6.e.9.9.5.5.9.9.9.9.e.9.e.9.9.9.e.9.9.9.9.9.9.e.3.9.",
"3.3.3.3.3.3.5.3.3.3.3.3.3.3.3.2.4.5.3.3.6.o.n.s 9 7 & : 5 0 8 u u u t 6 0 x x.a.9.9.9.9.9.9.9.9.9.9.9.9.e.9.9.9.9.9.9.9.3.9.9.9.9.",
"3.3.3.3.3.3.3.3.3.3.2.3.3.3.3.3.2.5.3.9.3.%.F # 2 5 4 ; 0 5 u u 8 7 e e 5 # n.<.4.3.9.0.e.3.9.9.3.3.9.9.9.9.q.q.9.9.9.9.9.9.9.9.q.",
"3.3.3.3.3.3.3.3.3.2.3.3.3.2.3.2.2.4.3.e.3.X.Z # 2 + & 7 0 0 u u 7 7 e ; 3 @ Z x.O.3.9.0.e.e.9.9.9.9.9.9.9.9.9.9.9.9.9.9.9.9.9.9.q.",
"3.3.3.3.3.3.3.3.3.3.3.3.3.3.3.3.3.2.3.3.3.O.h M + + 7 r ; 7 8 u u r 5 O : $ f m.O.3.9.3.5.e.9.9.9.9.9.9.9.9.9.9.0.9.9.9.9.9.9.9.9.",
"3.3.3.3.3.3.3.3.3.3.2.3.3.3.3.3.3.3.5.3.9.7.-.A % = r 6 e r 8 4 4 - * L U.J.c N.7.e.3.3.5.5.q.0.9.9.3.9.9.9.9.9.9.3.9.9.9.9.9.9.9.",
"3.3.3.3.3.3.3.3.3.2.3.3.3.3.3.5.3.3.3.3.3.5.$.b.M 5 7 w w = X O X 0 I [.eX2XL.k.7.e.3.3.6.9.9.9.9.9.9.9.9.9.9.9.9.9.9.9.9.9.9.q.5.",
"3.3.3.3.3.3.3.3.3.3.3.3.3.9.3.3.e.3.6.3.3.4.X.x.H q 4 r 6 & < I / } [.1XiX5XXXh.5.e.9.9.5.6.9.9.9.9.9.9.9.9.9.9.9.9.9.9.9.9.w.9.q.",
"3.3.3.3.3.3.3.3.3.3.3.3.5.3.3.3.3.9.3.3.3.5.2.=.H 5 = e & y (.#X=X,X1XtX8X8X>X&.2.0.0.0.9.e.5.q.0.9.9.9.9.9.9.9.9.9.9.9.q.9.9.9.9.",
"3.3.3.3.3.3.3.3.3.3.3.3.3.5.3.9.3.3.9.3.3.3.5.@.m - 6 =   [ 0XwXrXpXtX5X8X5X3Xl.2.0.0.0.e.e.e.9.9.9.9.9.9.9.9.9.9.9.9.w.9.9.9.w.q.",
"3.3.3.3.3.9.3.3.3.3.3.3.9.5.3.5.9.9.9.3.3.6.3.$.n - = : * J.wXtXiX5X5XiX8XiX3Xk.4.e.0.0.e.e.5.9.9.9.0.9.9.9.9.9.9.9.9.9.9.9.9.9.9.",
"3.3.3.3.3.3.3.3.3.3.3.3.3.5.5.3.3.3.9.9.3.3.3.o.m 0 = O N =XrXiX5X7X5X5XrX|.H.j.O.9.0.0.e.e.9.9.9.9.9.9.0.9.9.9.9.9.9.9.q.9.9.9.q.",
"3.3.3.3.3.3.3.3.3.3.3.3.3.3.5.9.3.9.3.9.3.3.9.:.c @ + @ L 9XsXaXpXyXtXpX|.( T A $.e.9.9.e.e.9.9.9.9.9.0.q.9.9.9.9.9.9.q.q.9.9.9.9.",
"3.3.3.3.3.3.3.3.3.3.3.3.5.3.3.5.3.3.3.9.e.5.5.o.Z , - O U 9XeX2XwXyXsXwX/._.U.x $.6.5.3.9.9.9.9.0.9.9.q.0.9.9.9.9.q.q.9.9.9.5.q.5.",
"9.3.3.3.9.3.3.3.2.3.3.3.3.3.3.3.3.3.3.3.9.3.6.%.G % + O K -X/.T ] -XsXwX`._.[ S :.3.3.3.9.e.9.9.9.0.9.9.9.9.9.9.9.q.9.q.q.9.q.q.9.",
"9.3.3.9.3.3.3.3.3.3.2.3.3.3.5.3.3.3.3.9.3.9.6.O.c.% + 4 P ' [ _.J./.rXrX/.OXW n $.3.3.3.9.9.9.9.9.9.9.0.w.9.9.9.q.9.q.q.q.q.q.5.q.",
"3.3.3.3.3.3.3.3.3.3.3.3.3.5.3.3.3.5.3.3.9.9.3.O.c.s 5 3 U } *X| $XU.<XaX{.+X@Xn.$.3.9.9.9.9.e.e.9.9.9.w.0.9.q.9.9.q.q.q.q.9.9.q.9.",
"9.3.9.3.9.3.3.3.3.3.3.3.3.3.3.5.3.3.3.3.9.9.3.7.-.f # 3 R ).*XE | ^.<X6X-X{ T.h O.9.9.0.9.q.q.e.0.q.9.0.w.9.9.q.q.q.9.q.q.q.q.q.q.",
"9.9.9.9.3.9.9.3.9.3.3.3.5.3.3.3.2.3.3.3.3.0.5.4.o.g o & i oXdXQ oX^.<X6X4X~.S.-.O.5.e.0.9.9.e.q.9.9.9.9.q.9.9.9.q.9.9.9.w.9.q.9.9.",
"9.3.9.9.9.9.3.9.3.9.3.3.9.3.5.5.5.3.3.9.e.e.9.3.O.*.M . V | dXqX*XI.1X4X6XyX X,.4.3.0.9.9.9.q.e.q.9.9.w.0.q.q.9.9.q.9.w.9.9.9.w.q.",
"9.3.9.3.9.3.9.3.3.3.3.3.3.3.3.3.3.3.3.3.e.3.9.3.5.<.D.K I ) `.&X} [.rX8X6X;Xz.4.9.9.9.9.9.q.9.0.q.9.9.q.9.9.9.q.0.q.9.9.q.9.9.9.9.",
"9.9.9.3.9.9.9.9.9.3.3.3.3.9.5.9.9.9.9.3.e.3.9.9.2.>.Q.].].^.U U ^.<XaX6X;Xk...0.9.9.5.5.9.q.9.q.9.q.q.0.9.w.9.9.q.q.9.q.0.9.9.w.5.",
"9.9.3.9.9.9.3.3.3.3.3.3.3.3.9.3.3.3.e.3.e.3.3.5.3.#.F.P.P.{.{.#X9XwX,X}.c @.2.0.0.3.5.9.9.w.q.6.q.9.w.9.9.9.q.q.q.9.w.9.q.q.9.q.q.",
"3.9.3.9.3.9.3.3.3.3.3.3.3.9.3.3.5.5.3.9.e.3.3.3.5...&.g.g.b.P.~.J.] I z p *.f.9.9.5.3.9.0.0.q.q.q.0.9.q.9.q.q.0.0.9.9.q.q.9.0.9.9.",
"9.9.9.3.3.9.3.3.3.3.9.3.3.3.3.5.8.2.3.3.e.9.9.9.5.3...%.4.o.g.f 1 ; 8 N S v +.9.3.9.e.0.0.0.q.5.q.9.q.9.0.q.q.9.q.q.q.9.0.q.q.q.9.",
"3.3.9.9.3.3.9.3.9.3.3.3.3.3.3.3.4.4.3.9.9.9.5.9.9.5.5.5.3.8.@.v z R V V Y Z @.#.O.8.9.0.0.q.q.9.q.q.w.9.q.q.w.9.q.9.9.q.q.9.9.q.w.",
"9.9.9.9.3.3.3.3.3.3.5.5.3.9.9.3.5.5.9.9.3.3.3.3.3.9.3.6.6.X.,.C._ [ E Q I D b.g.&.>.6.q.9.w.9.q.9.9.q.q.q.9.9.9.9.9.w.9.w.w.9.9.9.",
"9.3.9.3.3.3.9.3.3.3.3.3.3.3.3.5.4.3.9.9.3.6.3.3.0.9.3.5.2.X.*.Z )  .R oX} L z c Z.R.d.5.9.9.i.3.9.9.9.q.0.q.9.9.9.9.9.q.9.9.9.9.9.",
"9.9.3.3.3.3.3.3.3.5.5.3.3.3.9.3.3.9.9.9.e.5.3.3.9.0.e.3.6.O.c.H | ).! _.'.L K < # D.R.p.3.w.9.5.q.9.9.0.q.q.9.9.9.9.9.w.q.9.9.9.9.",
"3.9.3.3.3.3.3.3.3.3.3.3.9.3.9.9.9.9.0.9.9.6.3.9.9.9.0.t.3.z.P.( `.oX^ I.0X' P 5 q ~ !.d.6.9.5.w.9.9.q.9.q.9.9.9.9.9.9.9.9.9.9.9.9.",
"3.9.9.3.3.5.3.5.3.5.3.5.9.3.9.9.9.9.0.9.e.6.e.3.5.5.3.3.2.&.H.N OXoX_ U.0X+Xi + q A.W.d.r.s.e.9.q.9.9.9.9.9.q.q.9.9.9.9.9.9.9.9.9.",
"9.9.3.3.3.3.3.3.2.3.5.3.3.3.3.9.3.3.9.0.3.3.9.e.5.2.3.q.2.d.H.z | ) _ U.uX@XC s m E.B...s.r.9.w.9.q.9.9.9.9.0.q.w.9.9.9.9.9.9.9.9.",
"9.3.3.3.5.3.5.3.3.3.3.3.3.9.9.3.6.3.9.9.3.3.e.3.3.5.9.9.3.y.m.S V P ! I.].A.S.F.N.d.4.i.6.r.q.0.9.q.9.9.9.9.9.w.q.9.9.9.9.9.w.9.9.",
"9.3.3.3.3.3.5.3.3.3.3.3.5.3.9.3.2.3.9.9.6.5.9.e.9.3.9.3.w.f.B.n.C i B T C.N.<.a.a.5.q.q.3.q.9.w.0.0.q.9.9.9.9.9.9.w.q.9.9.9.9.w.9.",
"3.3.3.3.3.3.3.3.3.3.3.3.9.9.9.9.3.9.3.9.3.3.9.3.3.9.9.9.q.6.7.=.s % d n.,.%.4.5.5.5.q.q.9.q.q.9.q.9.q.q.q.q.9.9.9.9.9.9.q.9.0.q.9.",
"3.3.3.3.3.5.3.5.3.5.3.9.9.9.9.q.3.3.3.3.3.3.5.3.3.3.3.3.9.9.q.%.g s h =.O.3.9.w.q.9.q.9.9.q.q.w.q.q.0.9.9.q.w.9.9.9.9.9.9.9.9.9.q.",
"3.5.3.3.5.3.3.3.3.3.9.3.9.9.9.9.3.3.3.3.3.3.3.3.3.3.3.3.9.9.9.O.n.G v.<.8.9.9.9.q.q.q.q.0.q.9.q.q.9.q.q.0.q.9.w.9.9.9.9.9.9.9.9.9.",
"3.3.3.3.3.3.5.5.5.3.3.3.e.9.5.9.3.3.3.3.3.3.3.3.9.3.3.9.9.3.9.O.c.k =.O.2.9.w.9.9.q.q.0.9.q.q.5.9.9.9.q.q.9.9.9.9.9.9.9.9.9.9.9.5.",
"5.3.3.3.3.5.3.3.3.3.9.3.5.9.9.9.3.3.3.3.5.5.q.5.3.3.5.3.e.9.9.4.v.k O.p.3.0.0.9.9.q.9.9.9.9.9.q.q.9.q.9.q.9.9.9.9.9.9.9.q.9.9.9.q.",
"9.5.3.3.3.3.5.2.3.3.3.3.5.9.9.5.5.5.3.e.9.q.5.5.q.9.9.5.3.9.9.8.y.o.7.9.9.0.9.0.9.9.9.9.9.9.9.5.9.9.9.9.9.9.9.9.9.9.9.9.9.9.9.9.9.",
"3.5.5.5.8.3.3.3.5.5.5.e.e.5.e.9.9.9.9.5.5.q.5.q.5.5.9.5.9.3.9.5.7.7.6.9.0.0.9.9.9.9.0.e.0.9.5.9.q.9.9.9.9.9.9.9.9.w.9.9.9.9.9.9.9.",
"5.9.5.6.3.8.3.8.e.5.5.5.5.5.e.9.9.9.5.9.5.r.q.q.r.q.5.9.9.9.e.9.5.3.3.9.0.0.w.9.9.9.9.0.9.9.9.9.9.9.9.9.9.9.9.9.9.9.9.9.q.9.9.9.9.",
"3.3.3.3.3.2.3.5.3.3.3.3.9.5.9.9.5.9.3.9.9.q.q.5.9.5.q.9.9.q.9.9.9.9.9.0.0.0.q.9.9.9.q.0.9.9.q.9.9.9.9.9.9.q.9.9.9.9.9.9.9.9.9.9.w.",
"5.3.5.5.5.3.5.5.3.3.9.3.5.9.9.9.9.9.3.3.q.q.q.q.5.5.9.9.9.9.9.9.9.9.q.9.q.q.9.q.9.9.9.9.0.9.9.9.9.9.9.9.9.0.9.9.9.9.9.9.q.9.9.9.q.",
"5.5.5.9.5.5.9.5.3.3.9.5.9.9.9.9.9.9.5.9.q.q.q.5.9.q.q.q.9.9.9.9.9.9.9.0.9.q.9.q.5.9.9.9.9.9.9.9.9.9.9.9.9.9.9.9.9.9.9.9.9.9.9.9.q.",
"5.9.5.9.3.5.5.5.3.5.3.9.9.9.5.r.5.9.9.9.5.q.5.q.9.5.9.q.q.9.9.9.9.9.9.9.9.q.q.9.5.9.9.q.9.0.0.q.q.9.9.q.9.9.9.9.9.q.0.q.0.q.9.q.5.",
"9.3.9.5.5.9.5.9.9.5.9.q.9.9.q.e.5.9.9.9.q.q.q.q.q.q.q.w.0.q.q.q.9.9.w.9.q.9.w.q.q.q.9.q.q.9.e.0.9.9.w.9.9.9.9.9.q.9.9.9.q.q.9.q.9.",
"5.9.5.9.9.5.9.5.5.5.q.9.9.9.q.q.q.9.9.5.5.9.u.q.q.5.q.q.q.9.q.9.q.9.9.q.9.w.q.9.q.q.5.q.q.w.q.9.w.9.0.q.q.w.w.q.9.9.w.9.q.9.q.0.9.",
"q.9.9.9.5.q.5.9.9.5.9.9.q.9.9.9.q.9.q.q.9.q.q.q.q.q.q.w.9.w.q.q.9.9.e.q.t.q.w.q.q.q.q.q.q.q.e.w.0.9.q.q.q.q.9.w.w.9.9.w.9.w.q.q.w.",
"q.q.q.q.q.q.q.q.9.9.9.q.0.9.9.w.q.q.q.q.q.5.i.u.q.q.q.q.w.q.w.w.e.q.q.e.q.0.0.q.q.q.q.q.q.q.w.9.w.q.w.q.q.0.q.q.9.w.9.w.q.q.9.w.w.",
"q.q.q.q.q.i.q.q.9.q.w.9.w.9.w.9.q.w.q.q.q.i.q.i.q.w.w.w.q.w.w.q.q.i.r.w.q.w.w.q.w.w.w.q.w.w.w.w.q.q.q.w.w.w.q.w.q.w.w.9.q.w.w.w.w."
};
