/* XPM */
static char *_ba3aceb8b074f65f3f14b65575acec1xh97EOkvi58VlzE8[] = {
/* columns rows colors chars-per-pixel */
"65 65 175 2 ",
"   c #181715",
".  c #1A1917",
"X  c #1E1D1B",
"o  c #141412",
"O  c #201F1C",
"+  c #1F201D",
"@  c #21211E",
"#  c #252522",
"$  c #282723",
"%  c #272823",
"&  c #292926",
"*  c #2C2D29",
"=  c #312E27",
"-  c #302F29",
";  c #32312C",
":  c #3A372D",
">  c #34382E",
",  c #363632",
"<  c #3A3B34",
"1  c #3D3D3A",
"2  c #433E33",
"3  c #3E4235",
"4  c #454136",
"5  c #4A4537",
"6  c #43433C",
"7  c #4C4639",
"8  c #454B3D",
"9  c #4A4C3F",
"0  c #514B3C",
"q  c #49503F",
"w  c #59523F",
"e  c #4C4A44",
"r  c #4E4E4B",
"t  c #474644",
"y  c #524E44",
"u  c #4D5343",
"i  c #4F5846",
"p  c #575447",
"a  c #5C5544",
"s  c #52514D",
"d  c #5D584D",
"f  c #545B49",
"g  c #555653",
"h  c #5A5B55",
"j  c #5C5C5A",
"k  c #605744",
"l  c #615A46",
"z  c #695F47",
"x  c #605948",
"c  c #615F58",
"v  c #605D52",
"b  c #6D644C",
"n  c #6C6553",
"m  c #61615E",
"M  c #69655C",
"N  c #656052",
"B  c #746B53",
"V  c #776F58",
"C  c #7D7257",
"Z  c #646461",
"A  c #6C6C6A",
"S  c #6C6A61",
"D  c #6F7269",
"F  c #777360",
"G  c #7B7563",
"H  c #70706C",
"J  c #757473",
"K  c #797977",
"L  c #7C7D7B",
"P  c #81755B",
"I  c #867A5B",
"U  c #8B7D5D",
"Y  c #897D60",
"T  c #817C71",
"R  c #807F7E",
"E  c #8D8164",
"W  c #928565",
"Q  c #938768",
"!  c #97896A",
"~  c #9A8B67",
"^  c #808177",
"/  c #83827D",
"(  c #958C77",
")  c #A2926B",
"_  c #AC9B75",
"`  c #AF9D78",
"'  c #A29371",
"]  c #B8A67D",
"[  c #BAA77D",
"{  c #C0AC7D",
"}  c #858583",
"|  c #888786",
" . c #8A8A86",
".. c #8C8C8A",
"X. c #93938C",
"o. c #949592",
"O. c #989895",
"+. c #9F9F9D",
"@. c #A59A81",
"#. c #B3A88D",
"$. c #A0A09E",
"%. c #B7AC92",
"&. c #A5A5A3",
"*. c #A8A7A6",
"=. c #A8A8A6",
"-. c #ACACAB",
";. c #B1B2AF",
":. c #B5B5B3",
">. c #B9B9B6",
",. c #BCBDBB",
"<. c #CCB682",
"1. c #C6B184",
"2. c #D1BA85",
"3. c #D4BE89",
"4. c #C4B79A",
"5. c #C0BFBF",
"6. c #DAC28C",
"7. c #DCC490",
"8. c #E5CB8E",
"9. c #E0C791",
"0. c #E7CD93",
"q. c #E8CF92",
"w. c #EDD395",
"e. c #EFD598",
"r. c #F2D797",
"t. c #F1D699",
"y. c #F5D999",
"u. c #FADD9C",
"i. c #FEE19E",
"p. c #CFC2A2",
"a. c #DCCDAA",
"s. c #C0C1BC",
"d. c #E6D6B1",
"f. c #C5C5C4",
"g. c #C8C8C7",
"h. c #CBCBCB",
"j. c #D0D0CF",
"k. c #D3D3D3",
"l. c #DCDCDB",
"z. c #E0DFDF",
"x. c #E0E0DF",
"c. c #E4E4E3",
"v. c gray91",
"b. c #E9E9E9",
"n. c gray92",
"m. c #EAEAEA",
"M. c #EAEAE9",
"N. c #ECECEB",
"B. c #ECECEC",
"V. c gray93",
"C. c #EDEDEC",
"Z. c #EEEEEE",
"A. c #EFEFEF",
"S. c #EDEDED",
"D. c #EAEAE6",
"F. c gray94",
"G. c #F1F1F1",
"H. c #F0F1F0",
"J. c gray95",
"K. c #F3F3F3",
"L. c #F4F4F4",
"P. c gray96",
"I. c #F4F4F5",
"U. c #F6F6F6",
"Y. c gray97",
"T. c #F3F3F3",
"R. c #F8F8F7",
"E. c #F8F8F8",
"W. c #F9F9F9",
"Q. c gray98",
"!. c #FBFBFB",
"~. c #FDFDFD",
"^. c gray99",
"/. c #FEFEFE",
"(. c #F9F9F9",
/* pixels */
"~.n.Q.Z.Y.G.G.Y.Z.Y.n.Q.n.Q.n.Q.Z.Y.A.J.Y.A.U.n.Q.n.Q.n.Q.A.Y.G.J.Y.A.U.n.Q.n.Q.n.Q.Z.U.J.J.Y.A.U.n.Q.n.Q.n.Q.A.Y.A.Y.J.A.U.Z.Q.v.",
"Q.Z.Y.Z.Y.G.Y.G.Z.Y.Z.Y.Z.Y.Z.Y.A.Y.G.J.J.A.Y.Z.U.Z.U.A.U.A.J.G.J.J.A.Y.A.U.Z.Q.A.U.A.J.J.J.J.G.U.A.U.Z.Q.A.U.A.Y.G.J.J.G.U.A.U.n.",
"n.Y.Z.Y.G.G.G.G.Y.Z.Y.Z.Q.n.Y.Z.U.G.Y.J.J.Y.Z.U.Z.Q.Z.U.Z.U.A.J.J.G.Y.A.U.Z.U.Z.Q.Z.U.G.Y.J.J.J.A.U.Z.Q.n.U.n.Y.A.Y.J.G.J.Z.U.A.!.",
"n.Y.Z.Y.G.G.Y.G.G.G.Y.Z.Y.Z.Y.Z.U.G.J.J.G.Y.Z.Y.A.U.A.U.A.U.G.Y.Y.G.J.A.U.A.U.Z.U.A.U.G.J.J.J.Y.A.Y.A.U.A.U.A.Y.A.J.J.G.U.Z.Y.A.Y.",
"Q.Z.Y.Z.Y.Z.Y.G.Z.Y.Z.Q.n.Q.n.Q.Z.Y.H.J.J.A.U.Z.Q.n.Q.n.U.A.U.J.J.Y.A.U.Z.Q.n.Q.n.U.A.U.J.J.J.A.U.Z.Q.n.Q.n.Q.A.U.J.J.J.A.U.Z.U.n.",
"Y.Z.Y.Z.Y.G.G.Y.G.Y.Z.Y.Z.Y.Z.Y.H.I.H.J.I.J.U.A.U.Z.U.A.U.G.J.A.J.J.G.Y.A.U.A.U.Z.Y.A.J.G.J.Y.G.J.A.U.A.U.A.U.G.Y.J.J.Y.G.Y.A.U.Z.",
"n.Y.Z.Y.Z.Y.G.G.Y.Z.Y.n.Q.n.Y.Z.U.A.I.J.J.U.Z.U.n.Q.n.Q.Z.Y.Z.Y.J.J.U.A.U.n.Q.n.Q.Z.U.A.J.J.J.U.A.Q.n.Q.n.Q.Z.U.A.J.J.J.U.A.Q.n.!.",
"Z.Y.Z.Y.G.G.G.G.G.Z.Y.Z.Y.Z.Y.Z.Y.H.I.J.J.I.H.U.A.U.A.U.A.Y.A.J.J.J.J.G.U.A.Y.A.U.A.U.G.J.Y.J.J.A.U.A.U.A.U.A.J.J.J.J.J.J.G.U.A.Y.",
"Q.n.Q.Z.Y.G.G.G.G.Y.Z.Q.n.Q.n.Y.Z.U.J.J.J.A.U.Z.J.m.Q.V.E.Z.U.H.J.Y.A.U.Z.E.n.Q.V.U.A.U.G.J.Y.A.U.Z.Q.n.Q.n.U.A.U.G.J.U.A.U.Z.U.n.",
"Q.Z.Y.Z.G.G.Y.Y.G.Y.Z.Y.Z.Y.Z.Y.J.J.J.J.J.J.I.J.:.j.U.m.I.H.I.I.U.U.J.Y.A.U.A.U.A.U.H.I.J.J.J.G.Y.G.J.A.U.G.U.G.J.J.J.J.J.Y.A.U.Z.",
"v.Q.Z.Y.G.G.G.G.Y.Z.Q.n.Q.n.Q.n.U.J.I.I.J.U.J.~.R  .l.>.V.Q.v.f.&.&.h.Z.E.n.Q.n.Q.V.U.A.Y.J.A.Y.Z.U.n.Q.n.Q.n.U.A.Y.J.J.U.A.Q.n.~.",
"G.G.G.G.G.Y.Y.G.G.G.Y.Z.Y.Z.Y.G.J.J.J.J.A.$.O.j.A 1 o.L H.,.j % X . * } n.J.U.A.I.H.J.J.J.J.J.Y.G.U.A.Y.A.Y.G.J.J.J.J.J.J.A.Y.G.Y.",
"~.n.Q.Z.Y.G.G.G.Z.Y.n.Q.n.Q.n.Q.Z.U.J.J.Y.... & & @ & j o.& X % * * $ X L I.V.Q.n.Q.A.U.G.J.U.A.U.n.Q.n.Q.Z.Q.A.U.J.J.U.A.U.n.Q.v.",
"Y.Z.G.G.G.G.Y.G.G.Y.G.G.Z.Y.G.G.J.J.J.J.U.h.; # # % X # # % * * * * * $ $ -.I.J.J.J.J.J.J.J.J.J.Y.A.J.G.J.J.J.J.J.J.J.J.J.Y.J.J.G.",
"v.Q.Z.Q.G.Y.Y.G.Y.Z.Q.n.Q.Z.Q.Z.Y.A.I.J.G.J.j @ & * # X % * * * * * * * # r n.Z.Q.V.U.H.Y.J.J.U.Z.Q.n.Q.n.Q.Z.U.G.Y.J.J.U.A.Q.n.~.",
"Z.Y.G.G.G.G.G.G.G.G.Y.G.G.G.G.G.I.J.J.J.I.I.R X % & X # * * * * * * * * * # *.J.I.G.J.J.J.J.J.J.J.J.G.Y.J.J.G.J.J.J.J.J.J.J.J.G.K.",
"~.n.Q.Z.Y.G.Y.G.G.Y.Z.Q.Z.Q.Z.Q.n.Y.G.Y.n. .* O % $ + * * * * * * * * * * # c Y.V.Q.Z.Y.G.J.Y.A.U.Z.Q.n.Q.n.Q.A.U.G.Y.J.A.Q.n.Q.v.",
"Y.G.G.G.G.G.Y.G.G.G.G.G.G.G.G.G.G.G.G.G.x.m . X # . # * * * * * * * * & X O < k.J.J.G.J.J.J.G.J.J.J.J.J.J.J.J.J.J.J.J.J.J.J.J.J.G.",
"v.Q.Z.Y.Z.Y.G.G.Y.n.Q.n.Q.n.Q.n.Q.Z.G.G.J.V.X.$ . + * * * * * * * * $ X @ # @ ;.~.Z.Q.A.Y.J.G.U.n.Q.n.Q.Z.Q.Z.U.A.Y.J.J.Y.Z.Q.n.~.",
"G.G.G.Y.G.G.Y.G.Y.G.G.Y.Y.G.G.Y.G.Y.Y.G.J.I.:.# . # * * * * * % $ $ X 4 Q I @ $.Y.G.J.I.J.J.I.J.J.Y.J.J.J.J.J.J.J.J.J.J.G.Y.J.J.K.",
"~.Z.Q.Z.Y.G.Y.G.G.Q.n.Q.n.~.n.Q.Z.Y.G.I.I.n. .1 # # * * * @ X . . @ 4 ` t.r.I o.Z.Q.Z.Y.J.J.Y.A.Q.n.Q.n.Q.n.Q.Z.U.J.J.Y.A.U.Z.Q.v.",
"G.G.G.G.G.G.Y.G.G.G.G.G.G.G.G.G.G.G.K.G.J.J.V.c.g $ * * $ X - 0 p C _ e.i.i.<./ J.G.J.G.J.J.G.J.J.J.J.J.J.J.J.J.J.J.J.J.J.J.J.J.K.",
"n.Q.Z.Y.G.G.G.G.Y.Z.Q.n.Q.Z.Q.Z.Q.Z.I.I.G.U.Z.A.e # & * @ : W [ 6.6.0.u.u.i.0.G G.Z.Q.Z.Y.J.G.U.A.Q.n.Q.n.Q.n.Q.A.Y.J.J.U.A.Q.n.~.",
"Y.Z.Y.G.G.G.Y.G.G.G.G.Y.G.G.G.G.G.K.G.I.J.G.Y.l.1 @ # # X n 6.w.u.i.i.i.i.u.y.G l.Y.G.J.J.J.J.G.J.G.J.J.Y.G.J.J.J.G.J.J.J.J.J.J.A.",
"Q.Z.Q.Z.Y.G.G.G.G.Q.Z.Q.n.Q.n.Q.Z.Y.G.K.Y.Z.Q.k.< @ # X @ C y.i.i.i.i.i.u.i.i.E ,.Q.Z.U.J.J.Y.A.U.Z.Q.n.Q.n.Q.A.U.G.J.Y.A.U.Z.Q.v.",
"G.G.G.G.G.G.Y.G.G.G.G.G.Y.G.G.G.I.G.K.K.G.G.G.l.< # $ + 7 6.u.i.i.u.i.i.i.{ B V ,.I.J.J.I.J.J.J.J.J.A.Y.J.J.A.J.J.J.J.J.J.G.J.G.Y.",
"v.Q.Z.Y.Z.Y.G.G.Y.Z.Q.Z.Q.n.Q.Z.Y.Z.K.K.G.Y.A.c.1 @ $ X 2 w.i.u.i.u.i.i.<.e j < -.A.U.A.Y.J.G.U.A.Q.n.Q.n.Q.n.U.A.J.J.G.U.A.Q.n.~.",
"Y.Z.Y.G.Y.G.G.Y.G.G.Z.Y.Z.Y.Z.G.G.Y.G.K.K.A.Y.z.6 @ $ X a y.i.r.y.i.i.i.W } ..: o.Q.J.J.G.J.J.J.J.A.U.A.U.A.Y.A.Y.G.J.Y.G.J.A.Y.Z.",
"Q.Z.Q.Z.Y.Z.G.G.Z.Q.n.Q.n.Q.n.Q.Z.Y.G.K.K.A.Y.c.r @ # + 2 2.I 0 w 6.i.i.W ..h < | ^.A.U.J.J.Y.A.U.n.Q.n.Q.Z.Q.Z.U.J.J.Y.A.U.Z.Q.n.",
"Z.Y.Z.Y.G.G.Y.G.Y.Z.Y.Z.Y.Z.Y.Z.Y.G.K.K.G.Y.G.K.m + # + 7 n j } K I i.i.W o.1 , ..J.Y.A.J.J.J.J.J.U.A.U.A.J.A.Y.G.J.J.J.J.G.Y.A.Y.",
"v.Q.Z.Y.G.Y.G.G.Y.Z.Y.n.Q.n.Q.Z.Y.A.K.G.G.Y.Z.!.L X # + x M f.H ;.V r.i.) +.:.t O.A.U.A.Y.J.J.U.A.U.Z.Q.n.Q.A.U.A.J.J.J.U.A.U.n.!.",
"Y.Z.Y.Z.G.G.Y.G.Z.Y.Z.Y.Z.Y.Z.Y.Z.K.G.Y.G.G.Y.G.*.+ # + 0 } >.:  .L 8.i.2.c K & &.Q.J.J.J.J.J.A.Y.A.U.A.U.A.U.A.Y.J.J.J.G.U.A.U.n.",
"!.n.Y.Z.Y.G.G.Y.A.Y.n.Q.n.Q.n.Y.Z.Y.G.K.I.A.Y.Z.j.$ . X 5  .h.:  .T 8.i.r.E b a ,.!.Z.Y.G.G.K.A.Y.Z.Q.n.Q.n.Y.Z.Y.A.K.Y.Z.Y.Z.Q.n.",
"Z.Y.A.Y.G.K.K.G.K.A.Y.Z.Y.A.Y.A.Y.G.K.K.G.K.G.E.f.y -   5 S D.s.f.V r.7.e.i.<.M n.A.Y.A.I.K.G.K.A.Y.Z.Y.Z.Y.A.Y.G.K.K.G.K.A.Y.Z.Y.",
"n.Q.n.Y.A.K.K.G.Y.Z.Y.Z.Q.n.Y.Z.Y.Z.I.K.G.Y.Z.Q.f.n C : a k ..:.m ~ i.i.i.w.d &.!.V.Y.A.K.K.G.Y.Z.Y.n.Q.n.Y.Z.Y.A.K.K.G.Y.Z.Y.n.!.",
"Y.Z.Y.A.Y.G.K.K.A.Y.A.Y.Z.Y.Z.Y.Z.Y.G.K.K.A.Y.G.l.M _ ' ~ ~ 2 2 C w.i.i.6.a K H.Z.Y.A.K.G.K.Y.A.Y.A.Y.Z.Y.Z.Y.A.Y.G.K.K.A.Y.A.Y.n.",
"!.Z.Y.Z.Y.G.K.K.A.Y.Z.Y.n.Q.Z.Y.Z.K.G.K.K.A.Y.Z.Y.H W Y E #.` 1.e.i.w.) : h c.Q.Z.Y.Z.Y.G.K.K.A.Y.Z.Y.n.Q.Z.Y.Z.Y.G.K.K.A.Y.Z.Y.n.",
"n.Y.Z.Y.A.K.K.G.Y.A.Y.Z.Y.Z.Y.Z.Y.A.K.K.G.Y.A.Y.G.:.7 4 - x U W U b 4 & > s N.Z.Y.Z.Y.A.K.K.G.Y.Z.Y.Z.Q.Z.Y.Z.Y.A.K.K.G.Y.Z.Y.Z.Q.",
"n.Y.Z.Y.A.K.K.G.Y.Z.Y.Z.Y.Z.Y.Z.Y.A.Y.G.G.I.A.E.Z.G.| J -.j : X + % > < 3 ; 5.H.Y.A.Y.A.K.K.G.Y.A.Y.n.Y.n.Y.A.Y.A.Y.K.G.Y.Z.Y.Z.Q.",
"Q.Z.Y.Z.Y.G.K.K.A.Y.Z.Y.Z.Y.Z.Y.Z.Y.G.K.K.G.Y.Z.E.V.Y.n.E.V.L * * f < 8 3 < / Q.Z.Y.A.Y.G.K.K.A.Y.Z.Y.Z.Y.Z.Y.A.Y.A.K.K.A.Y.Z.Y.n.",
"Q.Z.Y.A.Y.G.K.K.A.Y.Z.Y.Z.Y.Z.Y.A.Y.G.K.K.A.Y.Z.Y.V.Y.Z.Y.n.j A g h 3 9 8 8 r k.n.Q.A.Y.G.K.Y.A.Y.A.Y.Z.Y.Z.Y.A.K.G.K.K.G.Y.Z.Y.n.",
"n.Y.n.Y.A.K.K.G.Y.Z.Y.n.Q.n.Y.Z.Y.A.K.K.G.Y.Z.Y.V.Q.n.Q.A.g.6 - h D u ` G u $ , m ,.E.A.K.K.A.Y.Z.Y.n.Q.n.Y.Z.Y.G.K.K.G.Y.Z.Y.n.!.",
"n.Y.A.Y.G.K.K.G.Y.Z.Y.Z.Y.Z.Y.A.Y.Z.K.K.A.Y.A.Y.Z.Y.Z.Y.F. .P y D ^ u ( @.8 8 $ O Z Y.Z.I.K.A.Y.A.Y.Z.Y.A.Y.A.Y.A.K.K.A.Y.A.Y.Z.Y.",
"!.n.Q.Z.Y.G.G.Y.A.Y.n.Q.n.Q.n.Q.Z.Y.G.K.K.Z.Y.Z.Q.n.E.A.h.y _ p X. .i G p.p u * * j v.Y.G.K.K.A.Y.n.Q.n.Q.n.Y.Z.Y.G.K.Y.Z.Y.n.Q.n.",
"Y.Z.Y.A.K.G.K.Y.G.Y.Z.Y.Z.Y.Z.Y.A.Y.G.K.K.G.Y.Z.Y.Z.Y.Z./ C P , X.X.i F a.#.* # $ c n.I.G.I.K.G.Y.A.Y.Z.Y.A.Y.A.Y.G.G.Y.G.K.A.Y.Z.",
"n.Q.n.Y.A.K.K.A.Y.Z.Y.n.Q.n.Y.Z.Y.A.K.K.G.Y.Z.Y.C.Y.Z.n.M [ I * ^ h i G d.4.4   * &.E.G.I.J.G.Y.Z.Y.n.Q.n.Y.Z.Y.Z.K.K.G.Y.Z.Q.n.!.",
"n.Y.A.Y.G.K.K.G.K.G.Y.Z.Y.Z.Y.A.Y.A.K.K.G.K.A.Y.A.Y.Z.c.v 6.W ; , u 8 F %.y j } f.A.I.G.I.I.G.I.A.Y.A.Y.A.Y.A.K.G.K.K.G.Y.A.Y.Z.Y.",
"!.n.Y.Z.Y.G.G.Y.A.Y.n.Q.n.Q.n.Y.Z.Y.G.G.Y.A.Y.Z.Y.n.Q.n.} z v J 3 < 1 d 6 o.c.Q.A.(.A.I.G.G.I.A.Y.Z.Y.n.Q.Z.Y.Z.Y.G.K.K.Z.Y.n.Q.n.",
"Y.A.Y.A.Y.G.K.K.G.Y.A.Y.Z.Y.A.K.G.K.K.K.K.G.Y.A.K.A.Y.G.c.A o.*.O O * g ,.Y.G.Y.A.Y.A.Y.G.K.K.A.Y.A.Y.Z.Y.A.K.G.K.K.K.K.G.Y.A.K.Z.",
"n.Y.n.Y.A.K.K.G.Y.Z.Q.Z.Q.n.Q.n.Y.A.K.K.G.Y.Z.Y.n.!.n.Q.Z.J.G.*.O * # ,.~.V.E.n.Q.n.Y.A.K.K.G.Y.Z.Y.n.Q.n.Q.n.Y.A.K.K.G.Y.Z.Q.n.~.",
"Z.Y.G.K.A.K.K.G.G.G.Y.A.Y.A.Y.A.K.G.K.K.G.K.G.Y.A.Y.A.Y.G.I.I.*.O r s k.Y.G.I.G.K.A.K.G.K.K.G.Y.A.Y.A.Y.A.Y.G.K.G.K.K.K.K.G.Y.A.Y.",
"!.n.Q.A.Y.G.K.Y.A.Y.n.Y.n.Q.n.Q.Z.Y.G.K.Y.Z.Y.Z.Q.v.Z.l.l.j.l.-.# X s l.v.Q.V.Q.n.Q.Z.Y.G.K.K.A.Y.n.Q.n.Q.n.Q.Z.Y.G.K.K.A.Y.n.Q.v.",
"Y.A.Y.A.K.G.K.K.G.K.G.K.A.K.G.Y.G.K.G.K.K.G.K.A.c.j.h.f.h.f.h.&.* # K h.h.k.v.I.G.Y.A.K.G.K.K.G.K.G.K.G.Y.A.Y.A.K.K.K.K.K.K.G.K.A.",
"v.Q.n.Y.Z.Y.K.G.Y.Z.Q.n.Q.n.Q.n.Q.A.K.K.G.Y.n.l.f.h.f.h.f.h.g.,.s ; *.f.h.f.j.l.!.n.Y.A.Y.K.G.Y.Z.Q.n.!.n.Q.n.Y.A.K.K.G.Y.Z.Q.n.~.",
"G.K.G.K.G.K.K.G.K.G.Y.A.K.G.K.G.G.G.K.K.G.Y.v.h.f.g.g.g.f.h.f.g.>.&.g.f.g.g.g.k.K.G.K.K.K.K.K.K.G.Y.A.K.G.K.G.K.G.K.K.K.K.G.K.G.K.",
"~.n.Q.Z.Y.G.K.K.A.Q.n.Q.n.Q.n.Q.Z.Y.G.K.K.Z.G.h.h.f.h.f.h.f.h.g.h.h.f.h.f.h.s.c.n.Y.Z.Y.G.K.K.A.Y.n.Q.n.Q.n.Q.Z.Y.G.K.K.A.Q.n.Q.n.",
"K.G.K.K.K.K.K.K.G.K.G.K.G.K.G.K.G.I.G.K.K.G.G.n.l.g.g.g.g.f.g.g.g.g.f.g.g.h.z.G.G.K.K.K.K.K.K.G.K.G.K.G.K.G.K.K.K.G.K.K.K.G.G.K.G.",
"n.!.n.Y.A.K.K.G.Y.Z.Q.n.Q.n.Q.Z.E.A.Y.G.G.Y.Z.Q.v.G.l.l.h.k.h.h.h.h.l.k.b.v.Q.n.!.n.Y.A.K.K.A.Y.Z.Q.n.Q.n.!.n.Y.Z.Y.K.G.Y.Z.Q.n.~.",
"G.K.K.K.K.K.K.K.G.K.K.K.K.G.K.K.G.K.K.K.K.K.K.G.J.J.J.J.G.V.V.n.Z.A.G.J.I.J.J.J.K.K.K.K.K.K.K.K.K.K.K.K.K.K.K.K.K.K.K.K.K.K.K.K.K.",
"~.n.Y.Z.Y.G.G.Y.A.Y.Z.Q.n.Q.n.Q.Z.Y.G.K.I.A.Y.Z.Q.n.Q.n.E.Z.Y.G.I.I.A.Y.Z.Q.B.Q.n.Y.Z.Y.G.K.Y.Z.Q.n.Q.n.!.n.Y.Z.Y.A.K.K.A.Q.n.Q.v.",
"G.G.G.K.K.K.K.G.K.G.K.G.K.G.K.K.J.G.I.K.G.J.J.J.J.J.J.J.J.J.J.J.J.J.J.J.J.G.J.J.K.G.K.K.K.K.G.K.G.G.G.K.G.K.K.K.K.K.K.K.K.G.K.K.K.",
"n.Q.n.Q.A.K.K.G.Y.n.Q.n.Q.n.!.n.E.A.I.K.G.Y.Z.Q.n.Q.V.Q.V.E.G.I.I.G.U.Z.(.n.Q.n.Q.Z.Y.A.Y.K.G.Y.Z.Q.n.!.n.!.n.Q.A.K.K.G.Y.n.Q.n.~.",
"K.G.K.K.K.G.K.G.G.K.G.Y.G.K.G.K.G.I.J.J.J.J.J.G.I.G.I.G.I.J.J.J.J.I.J.J.G.I.G.I.G.K.G.G.G.K.G.G.K.G.K.G.K.G.Y.G.K.G.K.K.K.K.G.K.A.",
"~.n.Q.Z.Y.G.K.Y.A.Y.n.Q.n.!.n.Q.A.U.G.J.I.G.U.V.Q.n.E.V.E.A.U.J.J.I.A.U.V.(.n.Q.n.Q.A.Y.G.K.Y.A.Y.n.Q.n.!.n.Y.Z.Y.G.K.K.A.Y.n.Q.v.",
"G.K.K.K.G.K.K.K.K.G.K.G.Y.A.K.K.K.G.K.K.K.K.G.K.G.Y.A.K.K.K.G.K.K.K.K.G.K.G.Y.A.K.K.K.G.K.K.K.K.G.K.G.Y.A.K.K.K.G.K.K.K.K.G.K.G.Y."
};
