/* XPM */
static char *_4c6250a1a9648c9bd8831a67afdcf505S5Oa1pSWH0Zl9MJ[] = {
/* columns rows colors chars-per-pixel */
"65 65 77 1 ",
"  c #2D232C",
". c #31272F",
"X c #332A2D",
"o c #362C33",
"O c #392F36",
"+ c #392F38",
"@ c #3A3136",
"# c #3D333B",
"$ c #40373E",
"% c #433A3E",
"& c #3F3540",
"* c #413740",
"= c #443A43",
"- c #483F46",
"; c #493F49",
": c #4A4146",
"> c #4C434A",
", c #50474E",
"< c #52494D",
"1 c #4E4450",
"2 c #514652",
"3 c #554B53",
"4 c #584F56",
"5 c #574D58",
"6 c #594F58",
"7 c #5B5256",
"8 c #5D535A",
"9 c #60575D",
"0 c #62595E",
"q c #615761",
"w c #655B63",
"e c #685F65",
"r c #695F68",
"t c #6A6166",
"y c #6D636A",
"u c #70676E",
"i c #736A6E",
"p c #716771",
"a c #756C72",
"s c #786F75",
"d c #796F78",
"f c #7B7275",
"g c #7D747A",
"h c #80777D",
"j c #837A7D",
"k c #89817F",
"l c #817780",
"z c #857C82",
"x c #887F85",
"c c #897F88",
"v c #8B8285",
"b c #8D838A",
"n c #908886",
"m c #90878C",
"M c #938A8D",
"N c #99918F",
"B c #918792",
"V c #958C92",
"C c #988F94",
"Z c #998F98",
"A c #9A9195",
"S c #9D939A",
"D c #A0979D",
"F c #A39A9E",
"G c #9F95A0",
"H c #A197A0",
"J c #A59CA2",
"K c #A89FA4",
"L c #A99FA8",
"P c #AAA1A5",
"I c #ADA3AA",
"U c #B0A7AE",
"Y c #B2A9AE",
"T c #B1A7B0",
"R c #B3AAB1",
"E c #B9AFB7",
"W c #BCB2BA",
/* pixels */
"ifjknnnkNNDFPPPPUIKJPPFCMSj$7MCVVVADFDDFFNZFCCZM-injjjnjxhhhhw%ih",
"NANFFFPFFFFKPPPFJKJFFJJDSJj%0CDDPFFFPLIYIZSFJFNi,hIIPFIPKFPDNt-jN",
"ANNNDDFNNAACCNDCAASANNZZVSh%7nVZFSAAAZDFPZSFJKM0$7DFDnJDNNSNj7%iM",
"nnvnnnNnnMMVCADDSDSZACACNSt-4cVDSACVCCMnMNCNMDce%7DJNkFANNNCNt%ix",
"nvjkkkkjjjxcMAAVccAVASSZCDr;7cCFFZVccxxjhzccjCcy%:nAxjjjNCNNN0%tx",
"nkjhjjiiyiashxjhyhhjccVcMSw%7jCZDVhpiiiihjcccScw<<NFNjhjMSDFN7%hn",
"vjhhhjjhiaashzhsphhhxcGZcDy$0zGSZVhyudhhzcVVcNcw%7NDNhujcCVCx7%hV",
"fityijjjihsadlhayhhhhzcZcDy$9hDCVchaalxxccZcjcxu:0FNVhucSFMNN0<yx",
"jiyiiihjhhhaddayyphhhhcccZq$0cZJmlshllzcccZVcZce-8cDChhxNVVMce<hc",
"jhhaahsaahzzldddpphphpzccVe$9cZZmlhhlzzcccCcxcVy-9ccchhcSZVVM0%hM",
"jkxjjxjhjhshhsurpphhhzccZSa$6ZSZczhlxzlccccScSc;%wcSZxzxccxcMw=hB",
"nNACNDCcncxxcBBBhhhzlccZcxa$8ZcBGZBVZZCBGcZSZSVp$<zcAVVCMZVMZy$qc",
"09000977-22;;;;;----;--=65w;wxpaapupppyrq8;;3;5p%%4-;;;-;qq8ay;ya",
"3>;<;%$--;;;;2-$--$$$$$$$o=$=2$=-====**$==$*;;=;$$%$;;3;$;-$=-$=-",
"$%%%$$$$%$$-;$*;;;5;;635533;;-%-;;====*==$$;*$*$$o$.*$$$$$$.o$$$$",
"hjxxmZSGSSJGp-8cZZGHHLLLLILLFZZccccczcccchcp*5Vcccclccxcchczhhhaa",
"VDFFKIIPYYPmw$tMAAAAASAAACVSFFKPYPJFKPKFDKM73-nPRRRUIYIIYPFAAADCS",
"VNCCADDACAAj9O0mCANVAAAAACVNACVNNNNNNMNnNDM9<$xKJJJDSFFFFFFDSDSNA",
"ADDANCAACACj0$0xVNAADADDCNANVMMMNNNnnjxxcDM9<$hJSSAMccVACACCVASCC",
"VVVMmMVDFFDx0%exnVCANNMDANAANnMVNNDNnnncjAMe<XhFFDAxhhxcMccjxMCDC",
"mmmczxMZZDCh9$wxVnnDAVVAAADAVcxnnNNNnxxnjMx0<$hFFDMjhihjxhhhhxVAV",
"CMvzjjbMZSSh9$wxAVnVANNDNVMNNMnnnNNMnxjxjnj0>$hFFAchihzchhahhxMnM",
"mzdapushVSSh9$exAmxcMnVDVVVCSASDMMMcnjxxxch9<$hIDZcjhxccxhaajcBcB",
"bhprwwyahBCh4$qzmhasjxnVSVVCACCAMNnxxjxxxMj0<XhISVchjccZcxhahcVVB",
"gprrwwrpacBcr;5hzt9yhiitiahhhjmVcMcccjjjhAh0-%hPDcczlxccBVhzcBZxc",
"zllzhsahlcVce-3cxayiapiu0yhnBxhacAZVMcMccNh0--jFZZZSGGGZJCzVZcSJV",
"puuur855w8epy;;r974<;-;<83<66558urir0yhyh89w%<jhqqeyrwqq66;;<4wqw",
"===;;=-;-$=5q;*;==-====;-$$--$=-*$$$$$$$%$%;%-7%---;;-===;;-=;;$-",
"*$$++*$*$$**$o$=Oo$$==O=$$$$=$$$; $;$$$$$.X$X$$X$$o$$$$$*$*==$$*=",
"rryprwwqwyyqwwrrayaupw%2mcxhlxmVq*5hahpphhhihuhhhyyypr88885*=8qq9",
"BVDJLUUTJJJJTTLGHZZmxr$3HTWWEERL5*uccGSHNDJFDFDJLLHHSccccch=;cSBS",
"mBBVZZZGGGGZZZZHZmZch8.4hZLJHDBh;$hZZLJJIFIPSFKLLJHHGGHGSca*-lZLC",
"bbMNAACAZVVVZBBVAMNng7%%sMNjvjng;*hjNKFFJDSFDDFDDFSAFDNAFh94%xJDN",
"xvMMASAMZVVSSSSASMANf7%%fVnifaxf;$tjNKFAnjjNcNSAVAAVNkcNSjw4%jSJD",
"gbMnMMnfgdgvBMmbFNFNj0@%fMniiijf;$yhnPAnjhjjjcNNVNcckNjjcjy3%jVKA",
"knbvvxgiiuuslbmmAAFNf0%%fMMfgfkf4$ihnFNjjjxnnNNMNcjjkkjhxxt<%jcSD",
"nkkvkkjjgfiigvBCNVNNi8@%fMMgjgvg%$thnFNjjjnNNANccjhthjhhkjt<%jNCF",
"nkjkkkkvvgfffjmMNVVCy8@%snnfggnj<$yhMFchhhcAANNcjjhhhhjjNj0<-nNcN",
"kkkkkkkgkkvgkvbBmMMSi8@%fVVgjgbj<$ijVDnjjhxVVVNcjjjhhhjkkj0<%cnjj",
"knnkknvkagkgggvvjvbAi0@%sVAvbxmg-XujCFNcjjxMcVDNxjjjjjjjkjt7%nNjx",
"kkkjkkjifsgkkfgzmjCCit@%uSSvMbBg<XijcFMxxjjxxcAcNjjjjjcckj0<%kNjn",
"kkjhjfiffafggfgvxgBZgy#%gBMbVgcv<$hjCJSMMcccccjxccjjjjjxNj977jNjc",
"vMnvkjhkvggvvbBBVmZGbyo%ubBzmjmc9$yhcHHSGSFFGccCDNcNSNcANj9--jNjc",
"fvkjjjijdaadzvvbvcbbby#1zGICZVZz;%hMJLGZcZVASSSJSNCNNDZZNNh--AFjc",
"404,<3::>>&13531>>,3w,#,y9uagyyp43jhhq;-%;-=-;;;<3,355558qh;%chey",
",;-=%==$:&&&&&&&####>&&:=o==>=>>=$;%$$-;----$--$%=$$*;***o2=%8$%=",
"+ &5223,1211521>>>,=,&:&>#,&&**O$$;-*%%*-.$;%$;$$***;;;;;*;;==$$+",
"6-aILSHHZGZZGGGSZSJASVGB8=plbxcMcccxcccci;qxhhcccccccccccccGccGll",
"e%svUYITIPPJHJJKPPPPPYFi7@fGLHHHJKIPKIJm0,7VJAJSGHHHJJDSZDSSSVcDB",
"e=fvPIKPKJHSSSAAVNNVnMg70$ubVVZZMmMmbmbft:7vSSSSDZSDFSSSSDSSSNVDh",
"u:hvKPFJSSSSAACCNAAAAvi00@exBVVACMmbjxxf0%8gNJSSDAcFSANScccccjjcl",
"y:hxKPSCCCCAACCVMDAASvi0qoecZCCBbxxjfhxj0#8ivPASDCCFDNcSAVNccxcAz",
"w%sjJKCzbbbbbbMMmVVNDvy99owcZZBzffffsgxj8#tsgPMGAAADAcccCNccnccDl",
"9=fhJJmgzzzzzzzbNNVSJNa90owzVVBcjhlzjjxg8%tsvSMSSAACNcxxxcxjxjjNx",
"8-hzDHBggzzzczzvvvMASMf70o0zBVBbjljbvvjs0%0gvSVSCDcxjhjhxxxjxxcNz",
"7-zlZAbgdglzzczzjkMAAAk90owvVbclgfjmMVvj0%8jMSVCcDNhhhjhjjjjxxxAl",
"5*hlBZcptyadlccbvjvVANgwq@rcZMxlfgzcmmvj8#tiNmVVVNjaihjahhhhjjMVz",
"q=llBcdwryyadzcbvjvmMmf9t@qlVBlamhgvVmjgy:yfNmvMmmjhsshsihhhhjxMh",
"2OhzVcdwwwwwralxzjjkxnf99@rbZbbBjljvmxzzw#0aVNVCxhaffsahhhhhhhjxl",
"6$jcBlprpyrryagzjjkjkmjq8$aVVldljVAvjvvgu%tjSABvxjhhhhjjyyihhjjch",
"w=hlccllappppdglfgjhgkf99@uBJCldhvxhxVvs0@8jAAmjxvjghjjjaihjhhhjh",
"9=zzBccBzzzccBBBmnMMmmvi8%sVGSVmvvvNVMmBt%tMAKSMCDCvcNCVjhhjhhhjp",
"r;zdarw8q8qqwwwwt0tt00077=iatwwtuyyu9,<0t#9i0w09yyy000tt000yaiahh",
"r=r;**;=;==;;;==:%::%::;3@2-&-;->::%%:>,w@7w%%=<:::::%%>>%%-:-%%6",
"*++$$+**======*====*+++++++++****$++$o++$++$$+$$*$$=$$*-=$===-$$o"
};
